<svg width="339" height="195" viewBox="0 0 339 195" fill="none" xmlns="http://www.w3.org/2000/svg">
<g filter="url(#filter0_d_174_2)">
<rect x="5.00607" y="101.873" width="329.994" height="34.1903" rx="17.0951" fill="#0D3B66"/>
</g>
<g filter="url(#filter1_d_174_2)">
<rect x="5.00607" y="50.9366" width="329.994" height="34.1903" rx="17.0951" fill="#0D3B66"/>
</g>
<path d="M47.0106 77.6119V63.0665H48.772V70.2824H48.9424L55.4765 63.0665H57.7777L51.6697 69.629L57.7777 77.6119H55.647L50.5902 70.8506L48.772 72.896V77.6119H47.0106ZM60.0575 77.6119V63.0665H65.1427C66.156 63.0665 66.9917 63.2417 67.6498 63.5921C68.308 63.9377 68.798 64.4041 69.12 64.9912C69.442 65.5736 69.6029 66.2199 69.6029 66.9301C69.6029 67.5551 69.4917 68.0712 69.2691 68.4784C69.0513 68.8856 68.7625 69.2076 68.4027 69.4443C68.0475 69.6811 67.6617 69.8563 67.245 69.9699V70.1119C67.6901 70.1403 68.1375 70.2966 68.5873 70.5807C69.0371 70.8648 69.4136 71.272 69.7166 71.8023C70.0196 72.3326 70.1711 72.9813 70.1711 73.7483C70.1711 74.4775 70.0054 75.1332 69.674 75.7156C69.3425 76.298 68.8193 76.7597 68.1044 77.1006C67.3894 77.4415 66.459 77.6119 65.3132 77.6119H60.0575ZM61.8189 76.0494H65.3132C66.4637 76.0494 67.2805 75.8269 67.7635 75.3818C68.2511 74.932 68.495 74.3875 68.495 73.7483C68.495 73.2559 68.3695 72.8013 68.1186 72.3847C67.8676 71.9633 67.5101 71.6271 67.0461 71.3761C66.5821 71.1205 66.0329 70.9926 65.3984 70.9926H61.8189V76.0494ZM61.8189 69.4585H65.0859C65.6162 69.4585 66.0944 69.3544 66.5206 69.146C66.9514 68.9377 67.2923 68.6441 67.5433 68.2653C67.799 67.8866 67.9268 67.4415 67.9268 66.9301C67.9268 66.2909 67.7043 65.7488 67.2592 65.3037C66.8141 64.8539 66.1086 64.629 65.1427 64.629H61.8189V69.4585ZM79.088 69.558V71.1205H72.7244V69.558H79.088ZM81.3252 77.6119V76.3335L86.1264 71.0778C86.6898 70.4623 87.1538 69.9273 87.5184 69.4727C87.883 69.0135 88.1529 68.5826 88.3281 68.1801C88.508 67.7729 88.598 67.3468 88.598 66.9017C88.598 66.3903 88.4749 65.9476 88.2287 65.5736C87.9872 65.1995 87.6557 64.9107 87.2343 64.7071C86.8129 64.5035 86.3395 64.4017 85.8139 64.4017C85.2552 64.4017 84.7675 64.5177 84.3508 64.7497C83.9389 64.977 83.6193 65.2966 83.392 65.7085C83.1695 66.1205 83.0582 66.6034 83.0582 67.1574H81.3821C81.3821 66.3051 81.5786 65.557 81.9716 64.9131C82.3645 64.2691 82.8996 63.7672 83.5767 63.4074C84.2585 63.0475 85.0232 62.8676 85.8707 62.8676C86.723 62.8676 87.4782 63.0475 88.1363 63.4074C88.7945 63.7672 89.3106 64.2526 89.6846 64.8634C90.0587 65.4742 90.2457 66.1536 90.2457 66.9017C90.2457 67.4367 90.1486 67.9599 89.9545 68.4713C89.7651 68.9779 89.4337 69.5438 88.9602 70.1688C88.4914 70.789 87.8404 71.5466 87.0071 72.4415L83.74 75.9358V76.0494H90.5014V77.6119H81.3252ZM93.4346 77.6119V76.3335L98.2358 71.0778C98.7992 70.4623 99.2632 69.9273 99.6278 69.4727C99.9924 69.0135 100.262 68.5826 100.437 68.1801C100.617 67.7729 100.707 67.3468 100.707 66.9017C100.707 66.3903 100.584 65.9476 100.338 65.5736C100.097 65.1995 99.7651 64.9107 99.3437 64.7071C98.9223 64.5035 98.4488 64.4017 97.9233 64.4017C97.3645 64.4017 96.8769 64.5177 96.4602 64.7497C96.0483 64.977 95.7287 65.2966 95.5014 65.7085C95.2788 66.1205 95.1676 66.6034 95.1676 67.1574H93.4914C93.4914 66.3051 93.6879 65.557 94.0809 64.9131C94.4739 64.2691 95.009 63.7672 95.686 63.4074C96.3679 63.0475 97.1325 62.8676 97.9801 62.8676C98.8323 62.8676 99.5876 63.0475 100.246 63.4074C100.904 63.7672 101.42 64.2526 101.794 64.8634C102.168 65.4742 102.355 66.1536 102.355 66.9017C102.355 67.4367 102.258 67.9599 102.064 68.4713C101.874 68.9779 101.543 69.5438 101.07 70.1688C100.601 70.789 99.9498 71.5466 99.1164 72.4415L95.8494 75.9358V76.0494H102.611V77.6119H93.4346Z" fill="white"/>
<path d="M48.0167 128.549V114.003H49.7781V121.219H49.9485L56.4826 114.003H58.7837L52.6758 120.566L58.7837 128.549H56.6531L51.5962 121.787L49.7781 123.833V128.549H48.0167ZM61.0636 128.549V114.003H66.1488C67.162 114.003 67.9977 114.178 68.6559 114.529C69.314 114.874 69.8041 115.341 70.1261 115.928C70.448 116.51 70.609 117.156 70.609 117.867C70.609 118.492 70.4977 119.008 70.2752 119.415C70.0574 119.822 69.7686 120.144 69.4087 120.381C69.0536 120.618 68.6677 120.793 68.2511 120.906V121.049C68.6961 121.077 69.1436 121.233 69.5934 121.517C70.0432 121.801 70.4196 122.209 70.7227 122.739C71.0257 123.269 71.1772 123.918 71.1772 124.685C71.1772 125.414 71.0115 126.07 70.68 126.652C70.3486 127.235 69.8254 127.696 69.1104 128.037C68.3955 128.378 67.4651 128.549 66.3192 128.549H61.0636ZM62.8249 126.986H66.3192C67.4698 126.986 68.2866 126.763 68.7695 126.318C69.2572 125.869 69.5011 125.324 69.5011 124.685C69.5011 124.192 69.3756 123.738 69.1246 123.321C68.8737 122.9 68.5162 122.564 68.0522 122.313C67.5882 122.057 67.0389 121.929 66.4045 121.929H62.8249V126.986ZM62.8249 120.395H66.092C66.6223 120.395 67.1005 120.291 67.5266 120.083C67.9575 119.874 68.2984 119.581 68.5494 119.202C68.805 118.823 68.9329 118.378 68.9329 117.867C68.9329 117.228 68.7103 116.685 68.2653 116.24C67.8202 115.79 67.1147 115.566 66.1488 115.566H62.8249V120.395ZM80.0941 120.495V122.057H73.7305V120.495H80.0941ZM88.1285 114.003V128.549H86.3672V115.85H86.282L82.7308 118.208V116.418L86.3672 114.003H88.1285ZM97.1413 128.747C96.5447 128.738 95.9482 128.624 95.3516 128.406C94.755 128.189 94.2105 127.822 93.718 127.306C93.2256 126.785 92.8303 126.082 92.532 125.196C92.2337 124.306 92.0845 123.189 92.0845 121.844C92.0845 120.556 92.2053 119.415 92.4467 118.421C92.6882 117.422 93.0386 116.581 93.4979 115.899C93.9571 115.213 94.5111 114.692 95.1598 114.337C95.8132 113.982 96.5495 113.804 97.3686 113.804C98.183 113.804 98.9074 113.968 99.5419 114.294C100.181 114.616 100.702 115.066 101.104 115.644C101.507 116.221 101.767 116.887 101.886 117.639H100.153C99.9917 116.986 99.6792 116.444 99.2152 116.013C98.7512 115.582 98.1357 115.367 97.3686 115.367C96.2417 115.367 95.3539 115.857 94.7053 116.837C94.0613 117.817 93.737 119.192 93.7322 120.963H93.8459C94.111 120.561 94.4259 120.218 94.7905 119.933C95.1598 119.645 95.567 119.422 96.0121 119.266C96.4571 119.11 96.9283 119.031 97.4254 119.031C98.2588 119.031 99.0211 119.24 99.7124 119.656C100.404 120.068 100.958 120.639 101.374 121.368C101.791 122.093 101.999 122.924 101.999 123.861C101.999 124.761 101.798 125.585 101.396 126.333C100.993 127.076 100.427 127.668 99.6982 128.108C98.9737 128.544 98.1214 128.757 97.1413 128.747ZM97.1413 127.185C97.7379 127.185 98.273 127.036 98.7464 126.737C99.2247 126.439 99.6011 126.039 99.8757 125.537C100.155 125.035 100.295 124.477 100.295 123.861C100.295 123.26 100.16 122.713 99.8899 122.22C99.6248 121.723 99.2578 121.328 98.7891 121.034C98.325 120.741 97.7947 120.594 97.1982 120.594C96.7483 120.594 96.3293 120.684 95.941 120.864C95.5528 121.039 95.2119 121.281 94.9183 121.588C94.6295 121.896 94.4022 122.249 94.2365 122.647C94.0708 123.04 93.9879 123.454 93.9879 123.889C93.9879 124.467 94.1229 125.007 94.3928 125.509C94.6674 126.011 95.0414 126.415 95.5149 126.723C95.9931 127.031 96.5353 127.185 97.1413 127.185Z" fill="white"/>
<g filter="url(#filter2_d_174_2)">
<rect x="4" width="329.994" height="34.1903" rx="17.0951" fill="#0D3B66"/>
</g>
<g filter="url(#filter3_d_174_2)">
<rect x="4" y="152.81" width="329.994" height="34.1903" rx="17.0951" fill="#0D3B66"/>
</g>
<path d="M47.0106 25.9776V11.4322H48.772V18.6481H48.9424L55.4765 11.4322H57.7777L51.6697 17.9947L57.7777 25.9776H55.647L50.5902 19.2163L48.772 21.2617V25.9776H47.0106ZM64.9154 11.4322V25.9776H63.1541V13.2788H63.0689L59.5177 15.6367V13.8469L63.1541 11.4322H64.9154Z" fill="white"/>
<path d="M47.6072 179.485H45.7606L51.1015 164.94H52.9197L58.2606 179.485H56.414L52.0674 167.241H51.9538L47.6072 179.485ZM48.289 173.803H55.7322V175.366H48.289V173.803ZM71.5472 169.485H69.7858C69.6817 168.978 69.4994 168.533 69.239 168.15C68.9833 167.766 68.6708 167.444 68.3015 167.184C67.9369 166.919 67.532 166.72 67.087 166.587C66.6419 166.455 66.1779 166.388 65.6949 166.388C64.8142 166.388 64.0164 166.611 63.3015 167.056C62.5912 167.501 62.0254 168.157 61.604 169.023C61.1873 169.89 60.979 170.953 60.979 172.212C60.979 173.472 61.1873 174.535 61.604 175.401C62.0254 176.268 62.5912 176.924 63.3015 177.369C64.0164 177.814 64.8142 178.036 65.6949 178.036C66.1779 178.036 66.6419 177.97 67.087 177.837C67.532 177.705 67.9369 177.508 68.3015 177.248C68.6708 176.983 68.9833 176.658 69.239 176.275C69.4994 175.887 69.6817 175.442 69.7858 174.94H71.5472C71.4146 175.683 71.1731 176.348 70.8228 176.935C70.4724 177.522 70.0368 178.022 69.5159 178.434C68.9951 178.841 68.4104 179.151 67.7617 179.364C67.1177 179.577 66.4288 179.684 65.6949 179.684C64.4544 179.684 63.3512 179.381 62.3853 178.775C61.4194 178.169 60.6594 177.307 60.1054 176.19C59.5515 175.072 59.2745 173.746 59.2745 172.212C59.2745 170.678 59.5515 169.353 60.1054 168.235C60.6594 167.118 61.4194 166.256 62.3853 165.65C63.3512 165.044 64.4544 164.741 65.6949 164.741C66.4288 164.741 67.1177 164.847 67.7617 165.06C68.4104 165.273 68.9951 165.586 69.5159 165.998C70.0368 166.405 70.4724 166.902 70.8228 167.489C71.1731 168.072 71.4146 168.737 71.5472 169.485ZM80.4162 171.431V172.994H74.0525V171.431H80.4162ZM88.4506 164.94V179.485H86.6892V166.786H86.604L83.0529 169.144V167.354L86.6892 164.94H88.4506ZM92.6338 179.485V178.207L97.435 172.951C97.9984 172.335 98.4624 171.8 98.827 171.346C99.1916 170.887 99.4615 170.456 99.6367 170.053C99.8166 169.646 99.9066 169.22 99.9066 168.775C99.9066 168.263 99.7835 167.821 99.5372 167.447C99.2958 167.073 98.9643 166.784 98.5429 166.58C98.1215 166.377 97.648 166.275 97.1225 166.275C96.5638 166.275 96.0761 166.391 95.6594 166.623C95.2475 166.85 94.9279 167.17 94.7006 167.582C94.4781 167.994 94.3668 168.477 94.3668 169.031H92.6907C92.6907 168.178 92.8872 167.43 93.2801 166.786C93.6731 166.142 94.2082 165.64 94.8853 165.281C95.5671 164.921 96.3318 164.741 97.1793 164.741C98.0316 164.741 98.7868 164.921 99.4449 165.281C100.103 165.64 100.619 166.126 100.993 166.736C101.367 167.347 101.554 168.027 101.554 168.775C101.554 169.31 101.457 169.833 101.263 170.344C101.074 170.851 100.742 171.417 100.269 172.042C99.8 172.662 99.149 173.42 98.3157 174.315L95.0486 177.809V177.923H101.81V179.485H92.6338Z" fill="white"/>
<defs>
<filter id="filter0_d_174_2" x="1.00607" y="101.873" width="337.994" height="42.1903" filterUnits="userSpaceOnUse" color-interpolation-filters="sRGB">
<feFlood flood-opacity="0" result="BackgroundImageFix"/>
<feColorMatrix in="SourceAlpha" type="matrix" values="0 0 0 0 0 0 0 0 0 0 0 0 0 0 0 0 0 0 127 0" result="hardAlpha"/>
<feOffset dy="4"/>
<feGaussianBlur stdDeviation="2"/>
<feComposite in2="hardAlpha" operator="out"/>
<feColorMatrix type="matrix" values="0 0 0 0 0 0 0 0 0 0 0 0 0 0 0 0 0 0 0.25 0"/>
<feBlend mode="normal" in2="BackgroundImageFix" result="effect1_dropShadow_174_2"/>
<feBlend mode="normal" in="SourceGraphic" in2="effect1_dropShadow_174_2" result="shape"/>
</filter>
<filter id="filter1_d_174_2" x="1.00607" y="50.9366" width="337.994" height="42.1903" filterUnits="userSpaceOnUse" color-interpolation-filters="sRGB">
<feFlood flood-opacity="0" result="BackgroundImageFix"/>
<feColorMatrix in="SourceAlpha" type="matrix" values="0 0 0 0 0 0 0 0 0 0 0 0 0 0 0 0 0 0 127 0" result="hardAlpha"/>
<feOffset dy="4"/>
<feGaussianBlur stdDeviation="2"/>
<feComposite in2="hardAlpha" operator="out"/>
<feColorMatrix type="matrix" values="0 0 0 0 0 0 0 0 0 0 0 0 0 0 0 0 0 0 0.25 0"/>
<feBlend mode="normal" in2="BackgroundImageFix" result="effect1_dropShadow_174_2"/>
<feBlend mode="normal" in="SourceGraphic" in2="effect1_dropShadow_174_2" result="shape"/>
</filter>
<filter id="filter2_d_174_2" x="0" y="0" width="337.994" height="42.1903" filterUnits="userSpaceOnUse" color-interpolation-filters="sRGB">
<feFlood flood-opacity="0" result="BackgroundImageFix"/>
<feColorMatrix in="SourceAlpha" type="matrix" values="0 0 0 0 0 0 0 0 0 0 0 0 0 0 0 0 0 0 127 0" result="hardAlpha"/>
<feOffset dy="4"/>
<feGaussianBlur stdDeviation="2"/>
<feComposite in2="hardAlpha" operator="out"/>
<feColorMatrix type="matrix" values="0 0 0 0 0 0 0 0 0 0 0 0 0 0 0 0 0 0 0.25 0"/>
<feBlend mode="normal" in2="BackgroundImageFix" result="effect1_dropShadow_174_2"/>
<feBlend mode="normal" in="SourceGraphic" in2="effect1_dropShadow_174_2" result="shape"/>
</filter>
<filter id="filter3_d_174_2" x="0" y="152.81" width="337.994" height="42.1903" filterUnits="userSpaceOnUse" color-interpolation-filters="sRGB">
<feFlood flood-opacity="0" result="BackgroundImageFix"/>
<feColorMatrix in="SourceAlpha" type="matrix" values="0 0 0 0 0 0 0 0 0 0 0 0 0 0 0 0 0 0 127 0" result="hardAlpha"/>
<feOffset dy="4"/>
<feGaussianBlur stdDeviation="2"/>
<feComposite in2="hardAlpha" operator="out"/>
<feColorMatrix type="matrix" values="0 0 0 0 0 0 0 0 0 0 0 0 0 0 0 0 0 0 0.25 0"/>
<feBlend mode="normal" in2="BackgroundImageFix" result="effect1_dropShadow_174_2"/>
<feBlend mode="normal" in="SourceGraphic" in2="effect1_dropShadow_174_2" result="shape"/>
</filter>
</defs>
</svg>
