<svg width="313" height="243" viewBox="0 0 313 243" fill="none" xmlns="http://www.w3.org/2000/svg">
<g filter="url(#filter0_d_174_2)">
<rect x="4.92705" y="128.022" width="304.073" height="42.9664" rx="20" fill="#0870EB" fill-opacity="0.63" shape-rendering="crispEdges"/>
</g>
<g filter="url(#filter1_d_174_2)">
<rect x="4.92705" y="64.0112" width="304.073" height="42.9664" rx="20" fill="#0870EB" fill-opacity="0.63" shape-rendering="crispEdges"/>
</g>
<path d="M43.7705 92.6567V78.1113H45.5318V85.3272H45.7023L52.2364 78.1113H54.5375L48.4296 84.6738L54.5375 92.6567H52.4068L47.35 85.8954L45.5318 87.9408V92.6567H43.7705ZM56.8174 92.6567V78.1113H61.9026C62.9158 78.1113 63.7515 78.2865 64.4097 78.6368C65.0678 78.9825 65.5579 79.4489 65.8799 80.036C66.2018 80.6184 66.3628 81.2647 66.3628 81.9749C66.3628 82.5999 66.2515 83.116 66.029 83.5232C65.8112 83.9304 65.5224 84.2524 65.1625 84.4891C64.8074 84.7259 64.4215 84.901 64.0049 85.0147V85.1567C64.4499 85.1851 64.8974 85.3414 65.3472 85.6255C65.797 85.9096 66.1734 86.3168 66.4764 86.8471C66.7795 87.3774 66.931 88.026 66.931 88.7931C66.931 89.5223 66.7653 90.178 66.4338 90.7604C66.1024 91.3428 65.5792 91.8045 64.8642 92.1454C64.1493 92.4863 63.2189 92.6567 62.073 92.6567H56.8174ZM58.5787 91.0942H62.073C63.2236 91.0942 64.0404 90.8717 64.5233 90.4266C65.011 89.9768 65.2549 89.4323 65.2549 88.7931C65.2549 88.3007 65.1294 87.8461 64.8784 87.4294C64.6275 87.008 64.27 86.6719 63.806 86.4209C63.342 86.1652 62.7927 86.0374 62.1583 86.0374H58.5787V91.0942ZM58.5787 84.5033H61.8458C62.3761 84.5033 62.8543 84.3991 63.2804 84.1908C63.7113 83.9825 64.0522 83.6889 64.3032 83.3101C64.5588 82.9313 64.6867 82.4863 64.6867 81.9749C64.6867 81.3357 64.4641 80.7936 64.0191 80.3485C63.574 79.8987 62.8685 79.6738 61.9026 79.6738H58.5787V84.5033ZM75.8479 84.6027V86.1652H69.4843V84.6027H75.8479ZM78.0851 92.6567V91.3783L82.8862 86.1226C83.4497 85.5071 83.9137 84.9721 84.2783 84.5175C84.6429 84.0582 84.9128 83.6274 85.088 83.2249C85.2679 82.8177 85.3578 82.3916 85.3578 81.9465C85.3578 81.4351 85.2347 80.9924 84.9885 80.6184C84.747 80.2443 84.4156 79.9555 83.9942 79.7519C83.5728 79.5483 83.0993 79.4465 82.5737 79.4465C82.015 79.4465 81.5273 79.5625 81.1107 79.7945C80.6987 80.0218 80.3791 80.3414 80.1519 80.7533C79.9293 81.1652 79.8181 81.6482 79.8181 82.2022H78.1419C78.1419 81.3499 78.3384 80.6018 78.7314 79.9579C79.1244 79.3139 79.6594 78.812 80.3365 78.4522C81.0184 78.0923 81.783 77.9124 82.6306 77.9124C83.4828 77.9124 84.238 78.0923 84.8962 78.4522C85.5543 78.812 86.0704 79.2973 86.4445 79.9081C86.8185 80.5189 87.0056 81.1984 87.0056 81.9465C87.0056 82.4815 86.9085 83.0047 86.7144 83.5161C86.525 84.0227 86.1935 84.5885 85.7201 85.2135C85.2513 85.8338 84.6003 86.5914 83.7669 87.4863L80.4999 90.9806V91.0942H87.2612V92.6567H78.0851ZM90.1945 92.6567V91.3783L94.9956 86.1226C95.5591 85.5071 96.0231 84.9721 96.3877 84.5175C96.7523 84.0582 97.0221 83.6274 97.1973 83.2249C97.3773 82.8177 97.4672 82.3916 97.4672 81.9465C97.4672 81.4351 97.3441 80.9924 97.0979 80.6184C96.8564 80.2443 96.525 79.9555 96.1036 79.7519C95.6822 79.5483 95.2087 79.4465 94.6831 79.4465C94.1244 79.4465 93.6367 79.5625 93.2201 79.7945C92.8081 80.0218 92.4885 80.3414 92.2612 80.7533C92.0387 81.1652 91.9274 81.6482 91.9274 82.2022H90.2513C90.2513 81.3499 90.4478 80.6018 90.8408 79.9579C91.2338 79.3139 91.7688 78.812 92.4459 78.4522C93.1277 78.0923 93.8924 77.9124 94.7399 77.9124C95.5922 77.9124 96.3474 78.0923 97.0056 78.4522C97.6637 78.812 98.1798 79.2973 98.5539 79.9081C98.9279 80.5189 99.1149 81.1984 99.1149 81.9465C99.1149 82.4815 99.0179 83.0047 98.8237 83.5161C98.6344 84.0227 98.3029 84.5885 97.8294 85.2135C97.3607 85.8338 96.7096 86.5914 95.8763 87.4863L92.6093 90.9806V91.0942H99.3706V92.6567H90.1945Z" fill="white"/>
<path d="M44.6975 156.668V142.122H46.4589V149.338H46.6294L53.1634 142.122H55.4646L49.3566 148.685L55.4646 156.668H53.3339L48.2771 149.907L46.4589 151.952V156.668H44.6975ZM57.7444 156.668V142.122H62.8296C63.8429 142.122 64.6786 142.298 65.3367 142.648C65.9949 142.994 66.4849 143.46 66.8069 144.047C67.1289 144.63 67.2899 145.276 67.2899 145.986C67.2899 146.611 67.1786 147.127 66.9561 147.534C66.7383 147.942 66.4494 148.264 66.0896 148.5C65.7345 148.737 65.3486 148.912 64.9319 149.026V149.168C65.377 149.196 65.8244 149.353 66.2742 149.637C66.7241 149.921 67.1005 150.328 67.4035 150.858C67.7065 151.389 67.858 152.037 67.858 152.804C67.858 153.533 67.6923 154.189 67.3609 154.772C67.0294 155.354 66.5062 155.816 65.7913 156.157C65.0763 156.497 64.1459 156.668 63.0001 156.668H57.7444ZM59.5058 155.105H63.0001C64.1507 155.105 64.9674 154.883 65.4504 154.438C65.9381 153.988 66.1819 153.443 66.1819 152.804C66.1819 152.312 66.0564 151.857 65.8055 151.441C65.5545 151.019 65.1971 150.683 64.733 150.432C64.269 150.176 63.7198 150.049 63.0853 150.049H59.5058V155.105ZM59.5058 148.514H62.7728C63.3031 148.514 63.7813 148.41 64.2075 148.202C64.6384 147.994 64.9793 147.7 65.2302 147.321C65.4859 146.943 65.6137 146.497 65.6137 145.986C65.6137 145.347 65.3912 144.805 64.9461 144.36C64.501 143.91 63.7955 143.685 62.8296 143.685H59.5058V148.514ZM76.775 148.614V150.176H70.4113V148.614H76.775ZM84.8094 142.122V156.668H83.048V143.969H82.9628L79.4117 146.327V144.537L83.048 142.122H84.8094ZM93.8222 156.867C93.2256 156.857 92.629 156.744 92.0324 156.526C91.4358 156.308 90.8913 155.941 90.3989 155.425C89.9065 154.904 89.5111 154.201 89.2128 153.316C88.9145 152.425 88.7654 151.308 88.7654 149.963C88.7654 148.675 88.8861 147.534 89.1276 146.54C89.3691 145.541 89.7194 144.701 90.1787 144.019C90.638 143.332 91.192 142.811 91.8406 142.456C92.4941 142.101 93.2303 141.924 94.0495 141.924C94.8638 141.924 95.5883 142.087 96.2227 142.414C96.862 142.736 97.3828 143.185 97.7852 143.763C98.1877 144.341 98.4481 145.006 98.5665 145.759H96.8335C96.6726 145.105 96.3601 144.563 95.896 144.132C95.432 143.702 94.8165 143.486 94.0495 143.486C92.9226 143.486 92.0348 143.976 91.3861 144.956C90.7422 145.936 90.4178 147.312 90.4131 149.083H90.5267C90.7919 148.68 91.1067 148.337 91.4713 148.053C91.8406 147.764 92.2478 147.541 92.6929 147.385C93.138 147.229 93.6091 147.151 94.1063 147.151C94.9396 147.151 95.7019 147.359 96.3932 147.776C97.0845 148.188 97.6385 148.758 98.0551 149.488C98.4718 150.212 98.6801 151.043 98.6801 151.98C98.6801 152.88 98.4789 153.704 98.0764 154.452C97.674 155.195 97.1082 155.787 96.379 156.228C95.6546 156.663 94.8023 156.876 93.8222 156.867ZM93.8222 155.304C94.4188 155.304 94.9538 155.155 95.4273 154.857C95.9055 154.559 96.2819 154.158 96.5566 153.657C96.8359 153.155 96.9756 152.596 96.9756 151.98C96.9756 151.379 96.8406 150.832 96.5708 150.34C96.3056 149.843 95.9387 149.447 95.4699 149.154C95.0059 148.86 94.4756 148.713 93.879 148.713C93.4292 148.713 93.0102 148.803 92.6219 148.983C92.2336 149.158 91.8927 149.4 91.5992 149.708C91.3103 150.015 91.0831 150.368 90.9174 150.766C90.7516 151.159 90.6688 151.573 90.6688 152.009C90.6688 152.586 90.8037 153.126 91.0736 153.628C91.3482 154.13 91.7223 154.535 92.1958 154.843C92.674 155.15 93.2161 155.304 93.8222 155.304Z" fill="white"/>
<g filter="url(#filter2_d_174_2)">
<rect x="4" width="304.073" height="42.9664" rx="20" fill="#0870EB" fill-opacity="0.63" shape-rendering="crispEdges"/>
</g>
<g filter="url(#filter3_d_174_2)">
<rect x="4" y="192.034" width="304.073" height="42.9664" rx="20" fill="#0870EB" fill-opacity="0.63" shape-rendering="crispEdges"/>
</g>
<path d="M43.7705 27.7687V13.2232H45.5318V20.4391H45.7023L52.2364 13.2232H54.5375L48.4296 19.7857L54.5375 27.7687H52.4068L47.35 21.0073L45.5318 23.0527V27.7687H43.7705ZM61.6753 13.2232V27.7687H59.9139V15.0698H59.8287L56.2776 17.4277V15.638L59.9139 13.2232H61.6753Z" fill="white"/>
<path d="M44.3671 220.679H42.5205L47.8614 206.134H49.6796L55.0205 220.679H53.1739L48.8273 208.435H48.7137L44.3671 220.679ZM45.0489 214.997H52.4921V216.56H45.0489V214.997ZM68.3071 210.679H66.5457C66.4415 210.172 66.2592 209.727 65.9988 209.344C65.7431 208.96 65.4306 208.638 65.0613 208.378C64.6967 208.113 64.2919 207.914 63.8468 207.781C63.4018 207.649 62.9377 207.583 62.4548 207.583C61.5741 207.583 60.7763 207.805 60.0613 208.25C59.3511 208.695 58.7853 209.351 58.3639 210.217C57.9472 211.084 57.7389 212.147 57.7389 213.406C57.7389 214.666 57.9472 215.729 58.3639 216.595C58.7853 217.462 59.3511 218.118 60.0613 218.563C60.7763 219.008 61.5741 219.23 62.4548 219.23C62.9377 219.23 63.4018 219.164 63.8468 219.031C64.2919 218.899 64.6967 218.702 65.0613 218.442C65.4306 218.177 65.7431 217.852 65.9988 217.469C66.2592 217.081 66.4415 216.636 66.5457 216.134H68.3071C68.1745 216.877 67.933 217.542 67.5826 218.129C67.2322 218.717 66.7966 219.216 66.2758 219.628C65.755 220.035 65.1702 220.345 64.5215 220.558C63.8776 220.771 63.1887 220.878 62.4548 220.878C61.2143 220.878 60.111 220.575 59.1451 219.969C58.1792 219.363 57.4193 218.501 56.8653 217.384C56.3113 216.266 56.0343 214.94 56.0343 213.406C56.0343 211.872 56.3113 210.547 56.8653 209.429C57.4193 208.312 58.1792 207.45 59.1451 206.844C60.111 206.238 61.2143 205.935 62.4548 205.935C63.1887 205.935 63.8776 206.041 64.5215 206.254C65.1702 206.467 65.755 206.78 66.2758 207.192C66.7966 207.599 67.2322 208.096 67.5826 208.683C67.933 209.266 68.1745 209.931 68.3071 210.679ZM77.176 212.625V214.188H70.8124V212.625H77.176ZM85.2105 206.134V220.679H83.4491V207.98H83.3639L79.8127 210.338V208.548L83.4491 206.134H85.2105ZM89.3937 220.679V219.401L94.1948 214.145C94.7583 213.529 95.2223 212.994 95.5869 212.54C95.9515 212.081 96.2214 211.65 96.3965 211.247C96.5765 210.84 96.6664 210.414 96.6664 209.969C96.6664 209.458 96.5433 209.015 96.2971 208.641C96.0556 208.267 95.7242 207.978 95.3028 207.774C94.8814 207.571 94.4079 207.469 93.8823 207.469C93.3236 207.469 92.8359 207.585 92.4193 207.817C92.0073 208.044 91.6877 208.364 91.4605 208.776C91.2379 209.188 91.1267 209.671 91.1267 210.225H89.4505C89.4505 209.372 89.647 208.624 90.04 207.98C90.433 207.336 90.968 206.834 91.6451 206.475C92.3269 206.115 93.0916 205.935 93.9392 205.935C94.7914 205.935 95.5466 206.115 96.2048 206.475C96.8629 206.834 97.379 207.32 97.7531 207.931C98.1271 208.541 98.3142 209.221 98.3142 209.969C98.3142 210.504 98.2171 211.027 98.023 211.538C97.8336 212.045 97.5021 212.611 97.0286 213.236C96.5599 213.856 95.9089 214.614 95.0755 215.509L91.8085 219.003V219.117H98.5698V220.679H89.3937Z" fill="white"/>
<defs>
<filter id="filter0_d_174_2" x="0.927048" y="128.022" width="312.073" height="50.9664" filterUnits="userSpaceOnUse" color-interpolation-filters="sRGB">
<feFlood flood-opacity="0" result="BackgroundImageFix"/>
<feColorMatrix in="SourceAlpha" type="matrix" values="0 0 0 0 0 0 0 0 0 0 0 0 0 0 0 0 0 0 127 0" result="hardAlpha"/>
<feOffset dy="4"/>
<feGaussianBlur stdDeviation="2"/>
<feComposite in2="hardAlpha" operator="out"/>
<feColorMatrix type="matrix" values="0 0 0 0 0 0 0 0 0 0 0 0 0 0 0 0 0 0 0.25 0"/>
<feBlend mode="normal" in2="BackgroundImageFix" result="effect1_dropShadow_174_2"/>
<feBlend mode="normal" in="SourceGraphic" in2="effect1_dropShadow_174_2" result="shape"/>
</filter>
<filter id="filter1_d_174_2" x="0.927048" y="64.0112" width="312.073" height="50.9664" filterUnits="userSpaceOnUse" color-interpolation-filters="sRGB">
<feFlood flood-opacity="0" result="BackgroundImageFix"/>
<feColorMatrix in="SourceAlpha" type="matrix" values="0 0 0 0 0 0 0 0 0 0 0 0 0 0 0 0 0 0 127 0" result="hardAlpha"/>
<feOffset dy="4"/>
<feGaussianBlur stdDeviation="2"/>
<feComposite in2="hardAlpha" operator="out"/>
<feColorMatrix type="matrix" values="0 0 0 0 0 0 0 0 0 0 0 0 0 0 0 0 0 0 0.25 0"/>
<feBlend mode="normal" in2="BackgroundImageFix" result="effect1_dropShadow_174_2"/>
<feBlend mode="normal" in="SourceGraphic" in2="effect1_dropShadow_174_2" result="shape"/>
</filter>
<filter id="filter2_d_174_2" x="0" y="0" width="312.073" height="50.9664" filterUnits="userSpaceOnUse" color-interpolation-filters="sRGB">
<feFlood flood-opacity="0" result="BackgroundImageFix"/>
<feColorMatrix in="SourceAlpha" type="matrix" values="0 0 0 0 0 0 0 0 0 0 0 0 0 0 0 0 0 0 127 0" result="hardAlpha"/>
<feOffset dy="4"/>
<feGaussianBlur stdDeviation="2"/>
<feComposite in2="hardAlpha" operator="out"/>
<feColorMatrix type="matrix" values="0 0 0 0 0 0 0 0 0 0 0 0 0 0 0 0 0 0 0.25 0"/>
<feBlend mode="normal" in2="BackgroundImageFix" result="effect1_dropShadow_174_2"/>
<feBlend mode="normal" in="SourceGraphic" in2="effect1_dropShadow_174_2" result="shape"/>
</filter>
<filter id="filter3_d_174_2" x="0" y="192.034" width="312.073" height="50.9664" filterUnits="userSpaceOnUse" color-interpolation-filters="sRGB">
<feFlood flood-opacity="0" result="BackgroundImageFix"/>
<feColorMatrix in="SourceAlpha" type="matrix" values="0 0 0 0 0 0 0 0 0 0 0 0 0 0 0 0 0 0 127 0" result="hardAlpha"/>
<feOffset dy="4"/>
<feGaussianBlur stdDeviation="2"/>
<feComposite in2="hardAlpha" operator="out"/>
<feColorMatrix type="matrix" values="0 0 0 0 0 0 0 0 0 0 0 0 0 0 0 0 0 0 0.25 0"/>
<feBlend mode="normal" in2="BackgroundImageFix" result="effect1_dropShadow_174_2"/>
<feBlend mode="normal" in="SourceGraphic" in2="effect1_dropShadow_174_2" result="shape"/>
</filter>
</defs>
</svg>
