<svg width="330" height="60" viewBox="0 0 330 60" fill="none" xmlns="http://www.w3.org/2000/svg">
<g filter="url(#filter0_i_286_2)">
<circle cx="210" cy="30" r="30" fill="#0D3B66"/>
</g>
<path d="M210 43.3125C217.767 43.3125 224.062 37.0165 224.062 29.25C224.062 21.4835 217.767 15.1875 210 15.1875C202.233 15.1875 195.938 21.4835 195.938 29.25C195.938 37.0165 202.233 43.3125 210 43.3125Z" fill="#455A64"/>
<path d="M203.058 30.1898C207.152 27.7477 213.602 28.2492 216.891 29.9273C218.412 30.7031 219.155 31.5422 221.044 32.543C222.647 33.3938 222.874 32.707 222.973 32.3789C223.298 31.2305 223.237 30.5016 223.237 29.2477C223.24 21.9375 217.312 15.6023 210 15.6023C202.687 15.6023 196.76 21.9375 196.76 29.25C196.76 30.2602 196.76 30.6188 196.973 31.5633C197.597 33.6563 201.03 31.3992 203.058 30.1898Z" fill="black"/>
<path d="M219.387 39.6937L216.183 35.8898L214.23 35.7797L216.879 41.5148C216.879 41.5148 217.228 41.2969 218.154 40.6969C219.082 40.0992 219.387 39.6937 219.387 39.6937Z" fill="#82AEC0"/>
<path d="M214.863 35.3883L218.362 40.5563C218.362 40.5563 217.746 41.0039 217.549 41.1117C217.352 41.2219 216.874 41.5195 216.874 41.5195L214.23 35.782L214.863 35.3883Z" fill="#263238"/>
<path d="M200.616 39.6937L203.82 35.8898L205.772 35.7797L203.123 41.5148C203.123 41.5148 202.774 41.2969 201.848 40.6969C200.92 40.0992 200.616 39.6937 200.616 39.6937V39.6937Z" fill="#82AEC0"/>
<path d="M205.139 35.3883L201.64 40.5563C201.64 40.5563 202.256 41.0039 202.453 41.1117C202.65 41.2219 203.128 41.5195 203.128 41.5195L205.772 35.7797L205.139 35.3883Z" fill="#263238"/>
<path d="M202.542 35.9508C202.556 36.4781 202.608 37.0523 202.727 37.6078C202.765 37.7836 202.866 37.9664 203.034 37.9664H203.491C203.662 37.9664 203.834 37.8773 204.115 38.4633C204.192 38.6273 204.295 38.7281 204.398 38.7797V38.7867C208.252 40.1461 213.511 39.5508 215.426 38.8102C215.583 38.8664 215.834 38.7914 215.988 38.4633C216.27 37.875 216.443 37.9664 216.612 37.9664H217.069C217.238 37.9664 217.338 37.7836 217.376 37.6078C217.495 37.0523 217.547 36.4758 217.561 35.9508H202.542V35.9508Z" fill="black"/>
<path d="M217.88 36.0937H202.12C201.984 36.0937 201.854 36.0397 201.757 35.9434C201.661 35.8472 201.607 35.7166 201.607 35.5805V33.0492H218.388V35.5805C218.391 35.8641 218.161 36.0937 217.88 36.0937V36.0937Z" fill="#82AEC0"/>
<path d="M218.395 33.5273H201.607V34.2305H207.626V35.4398H212.213V34.2305H218.395V33.5273Z" fill="#37474F"/>
<path d="M218.241 33.6H201.759C201.56 33.6 201.396 33.4453 201.396 33.2531V24.3117C201.396 21.0023 202.659 17.993 208.88 17.993H211.291C216.757 17.993 218.602 21.0023 218.602 24.3117V33.2531C218.602 33.4453 218.44 33.6 218.241 33.6V33.6Z" fill="#F44336"/>
<path d="M201.403 23.9578C201.403 25.1695 202.516 25.432 202.516 25.432L206.815 25.4203L208.819 25.418H209.271L210.157 25.4156L212.072 25.4109L217.498 25.3992C217.498 25.3992 218.597 25.05 218.597 23.9578C218.597 22.8656 218.283 17.9227 211.294 17.9906H208.88C201.405 17.8969 201.403 22.7461 201.403 23.9578V23.9578Z" fill="#82AEC0"/>
<path d="M211.655 32.8828H208.345C208.131 32.8828 207.925 32.7976 207.774 32.646C207.622 32.4943 207.537 32.2887 207.537 32.0742V23.3836C207.537 22.9383 207.898 22.575 208.345 22.575H211.657C212.102 22.575 212.466 22.9359 212.466 23.3836V32.0742C212.465 32.2889 212.379 32.4946 212.227 32.6462C212.075 32.7978 211.869 32.8829 211.655 32.8828V32.8828Z" fill="#F44336" stroke="#9B1313" stroke-width="2" stroke-miterlimit="10"/>
<path d="M206.447 19.6758C206.754 19.6758 206.871 19.8562 206.871 20.0812V28.8047C206.871 29.0297 206.681 29.2102 206.447 29.2102H202.962C202.727 29.2102 202.537 29.0297 202.537 28.8047V24.3305C202.537 20.1609 205.699 19.6758 206.447 19.6758V19.6758ZM211.193 23.2875H208.807C208.462 23.2875 208.184 23.5664 208.184 23.9109V28.6125C208.184 28.957 208.462 29.2359 208.807 29.2359H211.191C211.535 29.2359 211.814 28.957 211.814 28.6125V23.9109C211.814 23.5664 211.535 23.2875 211.193 23.2875V23.2875Z" fill="#BAE2FD"/>
<path d="M206.447 19.6758C206.754 19.6758 206.871 19.8562 206.871 20.0812V28.8047C206.871 29.0297 206.681 29.2102 206.447 29.2102H202.962C202.727 29.2102 202.537 29.0297 202.537 28.8047V24.3305C202.537 20.1609 205.699 19.6758 206.447 19.6758V19.6758ZM211.193 23.2875H208.807C208.462 23.2875 208.184 23.5664 208.184 23.9109V28.6125C208.184 28.957 208.462 29.2359 208.807 29.2359H211.191C211.535 29.2359 211.814 28.957 211.814 28.6125V23.9109C211.814 23.5664 211.535 23.2875 211.193 23.2875V23.2875Z" fill="#37474F"/>
<path d="M211.793 21.5555H208.207C207.846 21.5555 207.553 21.2625 207.553 20.9016V20.2242C207.553 19.8633 207.846 19.5703 208.207 19.5703H211.793C212.154 19.5703 212.447 19.8633 212.447 20.2242V20.9016C212.447 21.2648 212.154 21.5555 211.793 21.5555Z" fill="black"/>
<path d="M208.109 20.0977H208.812V21.0305H208.109V20.0977ZM211.188 20.0977H211.891V21.0305H211.188V20.0977ZM209.187 20.0977H209.651V21.0305H209.187V20.0977ZM210.518 20.0977H210.844V21.0305H210.518V20.0977Z" fill="#FFEB3B"/>
<path d="M206.196 20.3695C206.449 20.3695 206.545 20.5195 206.545 20.7047V28.2492C206.545 28.4344 206.388 28.5844 206.196 28.5844H203.407C203.215 28.5844 203.058 28.4344 203.058 28.2492V24.3656C203.058 20.9297 205.58 20.3695 206.196 20.3695V20.3695ZM211.005 23.843H209.06C208.802 23.843 208.591 24.0539 208.591 24.3117V28.1977C208.591 28.4555 208.802 28.6664 209.06 28.6664H211.005C211.263 28.6664 211.474 28.4555 211.474 28.1977V24.3117C211.474 24.0539 211.263 23.843 211.005 23.843Z" fill="#BAE2FD"/>
<path d="M203.602 32.4117C204.215 32.4117 204.712 31.9143 204.712 31.3008C204.712 30.6872 204.215 30.1898 203.602 30.1898C202.988 30.1898 202.491 30.6872 202.491 31.3008C202.491 31.9143 202.988 32.4117 203.602 32.4117Z" fill="#FFFF8D"/>
<path d="M216.405 32.4117C217.019 32.4117 217.516 31.9143 217.516 31.3008C217.516 30.6872 217.019 30.1898 216.405 30.1898C215.792 30.1898 215.295 30.6872 215.295 31.3008C215.295 31.9143 215.792 32.4117 216.405 32.4117Z" fill="#FFFF8D"/>
<path d="M213.698 19.6758C213.391 19.6758 213.274 19.8562 213.274 20.0812V28.8047C213.274 29.0297 213.464 29.2102 213.698 29.2102H217.184C217.418 29.2102 217.608 29.0297 217.608 28.8047V24.3305C217.61 20.1609 214.448 19.6758 213.698 19.6758Z" fill="#37474F"/>
<path d="M213.952 20.3695C213.698 20.3695 213.602 20.5195 213.602 20.7047V28.2492C213.602 28.4344 213.759 28.5844 213.952 28.5844H216.741C216.933 28.5844 217.09 28.4344 217.09 28.2492V24.3656C217.09 20.9297 214.568 20.3695 213.952 20.3695V20.3695Z" fill="#BAE2FD"/>
<path d="M203.07 23.9555L206.545 27.4313V25.7766L203.344 22.575C203.344 22.575 203.224 22.8633 203.145 23.2547C203.081 23.5547 203.07 23.9555 203.07 23.9555V23.9555ZM213.6 23.9438L217.09 27.4313V25.7766L213.602 22.2891L213.6 23.9438ZM208.591 24.2789L211.474 27.1617V25.507L209.745 23.843H209.025C208.786 23.843 208.591 24.0375 208.591 24.2789V24.2789Z" fill="white"/>
<path d="M205.638 38.3672L205.952 37.7906C206.023 37.6617 206.159 37.5797 206.306 37.5797H213.345C213.495 37.5797 213.633 37.6641 213.701 37.7953L214.008 38.3836C214.023 38.4139 214.031 38.4476 214.03 38.4816C214.028 38.5156 214.019 38.5488 214.001 38.5779C213.983 38.607 213.959 38.6311 213.929 38.648C213.899 38.6649 213.866 38.6739 213.832 38.6742L205.812 38.6602C205.777 38.6601 205.744 38.6511 205.714 38.6341C205.684 38.617 205.659 38.5925 205.642 38.563C205.624 38.5335 205.615 38.4999 205.614 38.4655C205.613 38.4312 205.622 38.3973 205.638 38.3672V38.3672Z" fill="#424242"/>
<path d="M215.412 41.4867L204.598 41.3672C204.382 41.3648 204.246 41.1656 204.345 41.0016L204.75 40.3289C204.837 40.1859 205.005 40.0969 205.191 40.0969H214.847C215.046 40.0969 215.227 40.2 215.304 40.3594L215.681 41.1375C215.763 41.3063 215.62 41.4891 215.412 41.4867V41.4867Z" fill="#82AEC0"/>
<g filter="url(#filter1_i_286_2)">
<circle cx="300" cy="30" r="30" fill="#0D3B66"/>
</g>
<g clip-path="url(#clip0_286_2)">
<path d="M292.687 36.9219L288.656 43.0625H290.812L294.75 36.9219H292.687Z" fill="#94989B"/>
<path d="M292.687 36.9219H290.625L285.938 43.0625H288.656L292.687 36.9219Z" fill="#E6E6E6"/>
<path d="M307.312 36.9219H305.25L309.187 43.0625H311.344L307.312 36.9219Z" fill="#94989B"/>
<path d="M307.312 36.9219L311.344 43.0625H314.063L309.375 36.9219H307.312Z" fill="#E6E6E6"/>
<path d="M305.625 37.4844H294.375L290.812 43.0625H309.187L305.625 37.4844Z" fill="#3E4347"/>
<path d="M309.563 29.0938H290.438V17.9375C290.438 17.6562 295.219 16.3438 300 16.3438C304.781 16.3438 309.563 17.6562 309.563 17.9375V29.0938Z" fill="#BA573F"/>
<path d="M310.688 36.7344C310.688 38.4687 289.359 38.4687 289.359 36.7344V33.875H310.688V36.7344Z" fill="#C5CDD3"/>
<path d="M307.5 38.7031C307.5 40.8125 292.5 40.8125 292.5 38.7031V35.1875H307.5V38.7031Z" fill="#DAE3EA"/>
<path d="M310.688 33.875H289.312V19.8125C289.312 19.4375 294.656 17.7969 300 17.7969C305.344 17.7969 310.688 19.4375 310.688 19.8125V33.875Z" fill="#F14E3A"/>
<path d="M290.437 20.4219V24.875L299.484 23.375V18.9219C299.391 18.5469 290.391 20.0469 290.437 20.4219M300.516 18.9219V23.375L309.516 24.8281V20.375C309.609 20.0469 300.609 18.5469 300.516 18.9219" fill="#3E4347"/>
<path d="M302.766 33.875H297.234V24.8281C297.234 23.6562 302.719 23.6562 302.719 24.8281C302.766 26.2344 302.766 33.875 302.766 33.875" fill="#FDF516"/>
<path d="M300 28.3438C300.88 28.3438 301.594 27.6512 301.594 26.7969C301.594 25.9426 300.88 25.25 300 25.25C299.12 25.25 298.406 25.9426 298.406 26.7969C298.406 27.6512 299.12 28.3438 300 28.3438Z" fill="#3E4347"/>
<path d="M295.266 17.8438C296.094 17.8438 296.766 17.1932 296.766 16.3906C296.766 15.5881 296.094 14.9375 295.266 14.9375C294.437 14.9375 293.766 15.5881 293.766 16.3906C293.766 17.1932 294.437 17.8438 295.266 17.8438Z" fill="#F14E3A"/>
<path d="M304.734 17.8438C305.563 17.8438 306.234 17.1932 306.234 16.3906C306.234 15.5881 305.563 14.9375 304.734 14.9375C303.906 14.9375 303.234 15.5881 303.234 16.3906C303.234 17.1932 303.906 17.8438 304.734 17.8438Z" fill="#F14E3A"/>
<path d="M304.828 29.75C302.484 29.2344 297.516 29.2344 295.172 29.75C294.844 29.7969 294.281 30.125 294.281 30.6406V32.4219C294.281 32.8906 294.891 33.2187 295.172 33.3125C297.516 33.8281 302.484 33.8281 304.828 33.3125C305.156 33.2656 305.719 32.9375 305.719 32.4219V30.6406C305.766 30.125 305.156 29.7969 304.828 29.75ZM304.734 32.0937C304.734 32.4219 304.266 32.6562 303.984 32.6562C302.016 32.9844 297.938 32.9844 295.969 32.6562C295.688 32.6094 295.219 32.375 295.219 32.0937V30.9219C295.219 30.5937 295.688 30.3594 295.969 30.3594C297.938 30.0313 302.016 30.0313 303.984 30.3594C304.266 30.4063 304.734 30.6406 304.734 30.9219V32.0937Z" fill="#FDF516"/>
<path d="M289.312 31.0156H310.688V32H289.312V31.0156Z" fill="#FDF516"/>
<path d="M301.547 31.0156C301.547 31.8594 300.844 32.5625 300 32.5625C299.156 32.5625 298.453 31.8594 298.453 31.0156C298.453 30.1719 299.156 29.4688 300 29.4688C300.844 29.4688 301.547 30.1719 301.547 31.0156Z" fill="#3E4347"/>
<path d="M300 31.7188C300.388 31.7188 300.703 31.404 300.703 31.0156C300.703 30.6273 300.388 30.3125 300 30.3125C299.612 30.3125 299.297 30.6273 299.297 31.0156C299.297 31.404 299.612 31.7188 300 31.7188Z" fill="white"/>
<path d="M295.781 33.875H304.219V36.9219H295.781V33.875Z" fill="#94989B"/>
<path d="M298.031 35.9844H299.016V38.1875H298.031V35.9844ZM300.984 35.9844H301.969V38.1875H300.984V35.9844Z" fill="#3E4347"/>
<path d="M288.844 33.875H311.203V35.1875H288.844V33.875Z" fill="#94989B"/>
<path d="M297.234 38.8438H302.719V40.8594H297.234V38.8438Z" fill="#F14E3A"/>
<path d="M311.156 29.4219C311.109 29.7031 310.828 29.8906 310.5 29.8438L306.141 29.0938C305.859 29.0469 305.625 28.7656 305.672 28.4844L305.859 27.5C305.906 27.2188 306.188 27.0313 306.516 27.0781L310.875 27.8281C311.156 27.875 311.391 28.1563 311.344 28.4375L311.156 29.4219M294.234 28.4844C294.281 28.7656 294.094 29.0469 293.766 29.0938L289.406 29.8438C289.125 29.8906 288.797 29.7031 288.75 29.4219L288.563 28.4375C288.516 28.1563 288.703 27.875 289.031 27.8281L293.391 27.0781C293.672 27.0313 294 27.2188 294.047 27.5L294.234 28.4844" fill="#3E4347"/>
</g>
<circle cx="30" cy="30" r="30" fill="#0D3B66" fill-opacity="0.79"/>
<path d="M20.5625 17.875H16.8125V44.125H20.5625V17.875Z" fill="url(#paint0_linear_286_2)"/>
<path d="M20.5625 17.875H16.8125V44.125H20.5625V17.875Z" fill="url(#paint1_radial_286_2)"/>
<path d="M20.5625 17.875H16.8125V44.125H20.5625V17.875Z" fill="url(#paint2_radial_286_2)"/>
<g filter="url(#filter2_f_286_2)">
<path d="M18.6875 18.955H19.7066V43.3403H18.6875V18.955Z" fill="url(#paint3_linear_286_2)"/>
</g>
<path d="M20.5625 17.875H16.8125V44.125H20.5625V17.875Z" fill="url(#paint4_radial_286_2)"/>
<path d="M20.5625 17.875H16.8125V44.125H20.5625V17.875Z" fill="url(#paint5_radial_286_2)"/>
<path d="M21.5881 25.375H16.7244C16.6124 25.3751 16.5015 25.3531 16.3981 25.3102C16.2947 25.2672 16.2008 25.2042 16.1218 25.1248C16.0429 25.0455 15.9804 24.9512 15.9381 24.8476C15.8957 24.7439 15.8743 24.6329 15.875 24.5209V22.4781C15.875 22.0047 16.2528 21.625 16.7244 21.625H21.5881C22.0597 21.625 22.4375 22.0047 22.4375 22.4791V24.5106C22.4385 24.6232 22.4173 24.7348 22.3752 24.8391C22.333 24.9435 22.2707 25.0385 22.1918 25.1187C22.113 25.199 22.0191 25.2629 21.9155 25.3069C21.8119 25.3509 21.7007 25.374 21.5881 25.375V25.375Z" fill="url(#paint6_linear_286_2)"/>
<path d="M21.5881 25.375H16.7244C16.6124 25.3751 16.5015 25.3531 16.3981 25.3102C16.2947 25.2672 16.2008 25.2042 16.1218 25.1248C16.0429 25.0455 15.9804 24.9512 15.9381 24.8476C15.8957 24.7439 15.8743 24.6329 15.875 24.5209V22.4781C15.875 22.0047 16.2528 21.625 16.7244 21.625H21.5881C22.0597 21.625 22.4375 22.0047 22.4375 22.4791V24.5106C22.4385 24.6232 22.4173 24.7348 22.3752 24.8391C22.333 24.9435 22.2707 25.0385 22.1918 25.1187C22.113 25.199 22.0191 25.2629 21.9155 25.3069C21.8119 25.3509 21.7007 25.374 21.5881 25.375V25.375Z" fill="url(#paint7_linear_286_2)"/>
<path d="M21.5881 25.375H16.7244C16.6124 25.3751 16.5015 25.3531 16.3981 25.3102C16.2947 25.2672 16.2008 25.2042 16.1218 25.1248C16.0429 25.0455 15.9804 24.9512 15.9381 24.8476C15.8957 24.7439 15.8743 24.6329 15.875 24.5209V22.4781C15.875 22.0047 16.2528 21.625 16.7244 21.625H21.5881C22.0597 21.625 22.4375 22.0047 22.4375 22.4791V24.5106C22.4385 24.6232 22.4173 24.7348 22.3752 24.8391C22.333 24.9435 22.2707 25.0385 22.1918 25.1187C22.113 25.199 22.0191 25.2629 21.9155 25.3069C21.8119 25.3509 21.7007 25.374 21.5881 25.375V25.375Z" fill="url(#paint8_linear_286_2)"/>
<path d="M21.5881 37.5625H16.7244C16.6122 37.5625 16.5011 37.5403 16.3976 37.4971C16.2941 37.454 16.2001 37.3907 16.1211 37.3111C16.0421 37.2314 15.9797 37.1369 15.9375 37.033C15.8953 36.9291 15.874 36.8178 15.875 36.7056V34.6694C15.875 34.1931 16.2528 33.8125 16.7244 33.8125H21.5881C22.0597 33.8125 22.4375 34.1931 22.4375 34.6694V36.7056C22.4378 36.9317 22.3486 37.1486 22.1895 37.3092C22.0303 37.4697 21.8142 37.5608 21.5881 37.5625Z" fill="url(#paint9_linear_286_2)"/>
<path d="M21.5881 37.5625H16.7244C16.6122 37.5625 16.5011 37.5403 16.3976 37.4971C16.2941 37.454 16.2001 37.3907 16.1211 37.3111C16.0421 37.2314 15.9797 37.1369 15.9375 37.033C15.8953 36.9291 15.874 36.8178 15.875 36.7056V34.6694C15.875 34.1931 16.2528 33.8125 16.7244 33.8125H21.5881C22.0597 33.8125 22.4375 34.1931 22.4375 34.6694V36.7056C22.4378 36.9317 22.3486 37.1486 22.1895 37.3092C22.0303 37.4697 21.8142 37.5608 21.5881 37.5625Z" fill="url(#paint10_linear_286_2)"/>
<path d="M21.5881 37.5625H16.7244C16.6122 37.5625 16.5011 37.5403 16.3976 37.4971C16.2941 37.454 16.2001 37.3907 16.1211 37.3111C16.0421 37.2314 15.9797 37.1369 15.9375 37.033C15.8953 36.9291 15.874 36.8178 15.875 36.7056V34.6694C15.875 34.1931 16.2528 33.8125 16.7244 33.8125H21.5881C22.0597 33.8125 22.4375 34.1931 22.4375 34.6694V36.7056C22.4378 36.9317 22.3486 37.1486 22.1895 37.3092C22.0303 37.4697 21.8142 37.5608 21.5881 37.5625Z" fill="url(#paint11_linear_286_2)"/>
<g filter="url(#filter3_ii_286_2)">
<path d="M23.6141 39.4375H39.0734C39.634 39.437 40.1714 39.2141 40.5678 38.8178C40.9641 38.4214 41.187 37.884 41.1875 37.3234V21.8641C41.187 21.3035 40.9641 20.7661 40.5678 20.3697C40.1714 19.9734 39.634 19.7505 39.0734 19.75H23.6141C23.0535 19.7505 22.5161 19.9734 22.1197 20.3697C21.7234 20.7661 21.5005 21.3035 21.5 21.8641V37.3234C21.5005 37.884 21.7234 38.4214 22.1197 38.8178C22.5161 39.2141 23.0535 39.437 23.6141 39.4375V39.4375Z" fill="url(#paint12_linear_286_2)"/>
</g>
<path d="M23.6141 39.4375H39.0734C39.634 39.437 40.1714 39.2141 40.5678 38.8178C40.9641 38.4214 41.187 37.884 41.1875 37.3234V21.8641C41.187 21.3035 40.9641 20.7661 40.5678 20.3697C40.1714 19.9734 39.634 19.7505 39.0734 19.75H23.6141C23.0535 19.7505 22.5161 19.9734 22.1197 20.3697C21.7234 20.7661 21.5005 21.3035 21.5 21.8641V37.3234C21.5005 37.884 21.7234 38.4214 22.1197 38.8178C22.5161 39.2141 23.0535 39.437 23.6141 39.4375V39.4375Z" fill="url(#paint13_linear_286_2)"/>
<path d="M23.6141 39.4375H39.0734C39.634 39.437 40.1714 39.2141 40.5678 38.8178C40.9641 38.4214 41.187 37.884 41.1875 37.3234V21.8641C41.187 21.3035 40.9641 20.7661 40.5678 20.3697C40.1714 19.9734 39.634 19.7505 39.0734 19.75H23.6141C23.0535 19.7505 22.5161 19.9734 22.1197 20.3697C21.7234 20.7661 21.5005 21.3035 21.5 21.8641V37.3234C21.5005 37.884 21.7234 38.4214 22.1197 38.8178C22.5161 39.2141 23.0535 39.437 23.6141 39.4375V39.4375Z" fill="url(#paint14_radial_286_2)"/>
<path d="M36.005 31.9328H35.0319C34.773 31.9328 34.5631 32.1427 34.5631 32.4016V35.2188C34.5631 35.4776 34.773 35.6875 35.0319 35.6875H36.005C36.2639 35.6875 36.4738 35.4776 36.4738 35.2188V32.4016C36.4738 32.1427 36.2639 31.9328 36.005 31.9328Z" fill="url(#paint15_linear_286_2)"/>
<path d="M27.6547 31.9328H26.6816C26.4227 31.9328 26.2128 32.1427 26.2128 32.4016V35.2188C26.2128 35.4776 26.4227 35.6875 26.6816 35.6875H27.6547C27.9136 35.6875 28.1234 35.4776 28.1234 35.2188V32.4016C28.1234 32.1427 27.9136 31.9328 27.6547 31.9328Z" fill="url(#paint16_linear_286_2)"/>
<path d="M36.2159 28.2784H37.2959V29.1859H36.2159V28.2784Z" fill="url(#paint17_linear_286_2)"/>
<path d="M25.6738 28.2784H26.7538V29.1859H25.6738V28.2784Z" fill="url(#paint18_linear_286_2)"/>
<path d="M26.2128 25.1406C26.2128 24.7428 26.3708 24.3613 26.6522 24.08C26.9335 23.7987 27.315 23.6406 27.7128 23.6406H34.9738C35.1707 23.6406 35.3658 23.6794 35.5478 23.7548C35.7298 23.8302 35.8951 23.9407 36.0344 24.08C36.1737 24.2193 36.2842 24.3846 36.3596 24.5666C36.435 24.7486 36.4738 24.9436 36.4738 25.1406V33.5716C36.4738 33.6701 36.4544 33.7676 36.4167 33.8586C36.379 33.9496 36.3237 34.0322 36.2541 34.1019C36.1844 34.1715 36.1018 34.2268 36.0108 34.2645C35.9198 34.3022 35.8222 34.3216 35.7238 34.3216H26.9628C26.8643 34.3216 26.7668 34.3022 26.6758 34.2645C26.5848 34.2268 26.5021 34.1715 26.4325 34.1019C26.3628 34.0322 26.3076 33.9496 26.2699 33.8586C26.2322 33.7676 26.2128 33.6701 26.2128 33.5716V25.1397V25.1406Z" fill="url(#paint19_linear_286_2)"/>
<path d="M37.5584 27.3466H37.1994C37.044 27.3466 36.9181 27.4725 36.9181 27.6278V29.3772C36.9181 29.5325 37.044 29.6584 37.1994 29.6584H37.5584C37.7138 29.6584 37.8397 29.5325 37.8397 29.3772V27.6278C37.8397 27.4725 37.7138 27.3466 37.5584 27.3466Z" fill="url(#paint20_linear_286_2)"/>
<path opacity="0.55" d="M25.4872 27.3466H25.1281C24.9728 27.3466 24.8469 27.4725 24.8469 27.6278V29.3772C24.8469 29.5325 24.9728 29.6584 25.1281 29.6584H25.4872C25.6425 29.6584 25.7684 29.5325 25.7684 29.3772V27.6278C25.7684 27.4725 25.6425 27.3466 25.4872 27.3466Z" fill="#C86464" fill-opacity="0.5"/>
<path d="M25.4872 27.3466H25.1281C24.9728 27.3466 24.8469 27.4725 24.8469 27.6278V29.3772C24.8469 29.5325 24.9728 29.6584 25.1281 29.6584H25.4872C25.6425 29.6584 25.7684 29.5325 25.7684 29.3772V27.6278C25.7684 27.4725 25.6425 27.3466 25.4872 27.3466Z" fill="url(#paint21_linear_286_2)"/>
<path d="M36.4747 30.9709V33.5716C36.4747 33.6701 36.4553 33.7676 36.4176 33.8586C36.3799 33.9496 36.3247 34.0322 36.255 34.1019C36.1854 34.1715 36.1027 34.2268 36.0117 34.2645C35.9207 34.3022 35.8232 34.3216 35.7247 34.3216H26.9637C26.8653 34.3216 26.7677 34.3022 26.6767 34.2645C26.5857 34.2268 26.5031 34.1715 26.4334 34.1019C26.3638 34.0322 26.3085 33.9496 26.2708 33.8586C26.2331 33.7676 26.2137 33.6701 26.2137 33.5716V30.9709H36.4737H36.4747Z" fill="url(#paint22_linear_286_2)"/>
<path d="M35.0506 25.0159H27.6378C27.3789 25.0159 27.1691 25.2258 27.1691 25.4847V30.1272C27.1691 30.3861 27.3789 30.5959 27.6378 30.5959H35.0506C35.3095 30.5959 35.5194 30.3861 35.5194 30.1272V25.4847C35.5194 25.2258 35.3095 25.0159 35.0506 25.0159Z" fill="url(#paint23_linear_286_2)"/>
<path d="M35.5184 26.4109H27.1691V25.4847C27.1691 25.3604 27.2185 25.2411 27.3064 25.1532C27.3943 25.0653 27.5135 25.0159 27.6378 25.0159H35.0497C35.174 25.0159 35.2932 25.0653 35.3811 25.1532C35.4691 25.2411 35.5184 25.3604 35.5184 25.4847V26.4109Z" fill="url(#paint24_linear_286_2)"/>
<path d="M33.9041 31.5128H28.8125C28.6805 31.5128 28.5734 31.6198 28.5734 31.7519C28.5734 31.8839 28.6805 31.9909 28.8125 31.9909H33.9041C34.0361 31.9909 34.1431 31.8839 34.1431 31.7519C34.1431 31.6198 34.0361 31.5128 33.9041 31.5128Z" fill="url(#paint25_linear_286_2)"/>
<path d="M32.9581 32.4484H29.7294C29.5973 32.4484 29.4903 32.5555 29.4903 32.6875C29.4903 32.8195 29.5973 32.9266 29.7294 32.9266H32.9581C33.0902 32.9266 33.1972 32.8195 33.1972 32.6875C33.1972 32.5555 33.0902 32.4484 32.9581 32.4484Z" fill="url(#paint26_linear_286_2)"/>
<path d="M26.2128 33.3756V31.5128H27.1588C27.2831 31.5128 27.4023 31.5622 27.4902 31.6501C27.5781 31.738 27.6275 31.8572 27.6275 31.9816V32.9069C27.6275 33.0312 27.5781 33.1504 27.4902 33.2383C27.4023 33.3262 27.2831 33.3756 27.1588 33.3756H26.2138H26.2128Z" fill="url(#paint27_linear_286_2)"/>
<path d="M36.4747 33.3756V31.5128H35.5288C35.4044 31.5128 35.2852 31.5622 35.1973 31.6501C35.1094 31.738 35.06 31.8572 35.06 31.9816V32.9069C35.06 33.0312 35.1094 33.1504 35.1973 33.2383C35.2852 33.3262 35.4044 33.3756 35.5288 33.3756H36.4747V33.3756Z" fill="url(#paint28_linear_286_2)"/>
<g filter="url(#filter4_i_286_2)">
<circle cx="120" cy="30" r="30" fill="#0D3B66"/>
</g>
<g filter="url(#filter5_ii_286_2)">
<path d="M121.776 19.657H120.665V31H121.776V19.657Z" fill="#D0C5D4"/>
</g>
<g filter="url(#filter6_ii_286_2)">
<path d="M127.409 18H111.699C110.422 18 109.277 18.74 108.877 19.83C108.844 19.91 108.911 20 109.011 20H111.399L108.433 28H115.099V20H127.32V31H132.876V22.93C132.887 20.21 130.431 18 127.409 18V18Z" fill="#F6C547"/>
<path d="M127.409 18H111.699C110.422 18 109.277 18.74 108.877 19.83C108.844 19.91 108.911 20 109.011 20H111.399L108.433 28H115.099V20H127.32V31H132.876V22.93C132.887 20.21 130.431 18 127.409 18V18Z" fill="url(#paint29_linear_286_2)"/>
</g>
<g filter="url(#filter7_i_286_2)">
<path d="M127.332 31H125.632C124.732 31 123.999 31.66 123.999 32.47V36H127.332V31Z" fill="url(#paint30_linear_286_2)"/>
</g>
<g filter="url(#filter8_ii_286_2)">
<path d="M108.906 41.975C109.938 41.975 110.928 41.606 111.658 40.9493C112.387 40.2925 112.797 39.4018 112.797 38.473C112.797 37.5442 112.387 36.6535 111.658 35.9967C110.928 35.34 109.938 34.971 108.906 34.971C107.874 34.971 106.885 35.34 106.155 35.9967C105.425 36.6535 105.015 37.5442 105.015 38.473C105.015 39.4018 105.425 40.2925 106.155 40.9493C106.885 41.606 107.874 41.975 108.906 41.975V41.975Z" fill="url(#paint31_linear_286_2)"/>
<path d="M108.906 41.975C109.938 41.975 110.928 41.606 111.658 40.9493C112.387 40.2925 112.797 39.4018 112.797 38.473C112.797 37.5442 112.387 36.6535 111.658 35.9967C110.928 35.34 109.938 34.971 108.906 34.971C107.874 34.971 106.885 35.34 106.155 35.9967C105.425 36.6535 105.015 37.5442 105.015 38.473C105.015 39.4018 105.425 40.2925 106.155 40.9493C106.885 41.606 107.874 41.975 108.906 41.975V41.975Z" fill="url(#paint32_linear_286_2)"/>
<path d="M108.906 41.975C109.938 41.975 110.928 41.606 111.658 40.9493C112.387 40.2925 112.797 39.4018 112.797 38.473C112.797 37.5442 112.387 36.6535 111.658 35.9967C110.928 35.34 109.938 34.971 108.906 34.971C107.874 34.971 106.885 35.34 106.155 35.9967C105.425 36.6535 105.015 37.5442 105.015 38.473C105.015 39.4018 105.425 40.2925 106.155 40.9493C106.885 41.606 107.874 41.975 108.906 41.975V41.975Z" fill="url(#paint33_linear_286_2)"/>
</g>
<g filter="url(#filter9_ii_286_2)">
<path d="M108.906 39.727C109.276 39.727 109.63 39.5949 109.891 39.3597C110.153 39.1245 110.3 38.8056 110.3 38.473C110.3 38.1404 110.153 37.8215 109.891 37.5863C109.63 37.3511 109.276 37.219 108.906 37.219C108.537 37.219 108.182 37.3511 107.921 37.5863C107.66 37.8215 107.513 38.1404 107.513 38.473C107.513 38.8056 107.66 39.1245 107.921 39.3597C108.182 39.5949 108.537 39.727 108.906 39.727V39.727Z" fill="url(#paint34_linear_286_2)"/>
</g>
<path d="M113.81 38C113.91 38 113.999 37.92 113.999 37.83C113.948 36.6668 113.4 35.5664 112.468 34.7593C111.536 33.9522 110.293 33.5009 109 33.5C107.706 33.4992 106.462 33.9499 105.529 34.7574C104.597 35.5648 104.049 36.6662 104 37.83C104 37.92 104.078 38 104.189 38H113.81Z" fill="#3B8676"/>
<path d="M113.81 38C113.91 38 113.999 37.92 113.999 37.83C113.948 36.6668 113.4 35.5664 112.468 34.7593C111.536 33.9522 110.293 33.5009 109 33.5C107.706 33.4992 106.462 33.9499 105.529 34.7574C104.597 35.5648 104.049 36.6662 104 37.83C104 37.92 104.078 38 104.189 38H113.81Z" fill="url(#paint35_radial_286_2)"/>
<path d="M113.81 38C113.91 38 113.999 37.92 113.999 37.83C113.948 36.6668 113.4 35.5664 112.468 34.7593C111.536 33.9522 110.293 33.5009 109 33.5C107.706 33.4992 106.462 33.9499 105.529 34.7574C104.597 35.5648 104.049 36.6662 104 37.83C104 37.92 104.078 38 104.189 38H113.81Z" fill="url(#paint36_linear_286_2)"/>
<path d="M113.81 38C113.91 38 113.999 37.92 113.999 37.83C113.948 36.6668 113.4 35.5664 112.468 34.7593C111.536 33.9522 110.293 33.5009 109 33.5C107.706 33.4992 106.462 33.9499 105.529 34.7574C104.597 35.5648 104.049 36.6662 104 37.83C104 37.92 104.078 38 104.189 38H113.81Z" fill="url(#paint37_radial_286_2)"/>
<path d="M113.81 38C113.91 38 113.999 37.92 113.999 37.83C113.948 36.6668 113.4 35.5664 112.468 34.7593C111.536 33.9522 110.293 33.5009 109 33.5C107.706 33.4992 106.462 33.9499 105.529 34.7574C104.597 35.5648 104.049 36.6662 104 37.83C104 37.92 104.078 38 104.189 38H113.81Z" fill="url(#paint38_linear_286_2)"/>
<g filter="url(#filter10_ii_286_2)">
<path d="M115.11 36V28H108.444L108.111 28.9C107.611 30.24 107.733 31.71 108.433 32.98L111.214 37.997H112.243L112.765 39H132.887V28H127.332V33.6C126.184 34.1278 125.251 34.9676 124.664 36H115.11V36Z" fill="#3D8F7A"/>
<path d="M115.11 36V28H108.444L108.111 28.9C107.611 30.24 107.733 31.71 108.433 32.98L111.214 37.997H112.243L112.765 39H132.887V28H127.332V33.6C126.184 34.1278 125.251 34.9676 124.664 36H115.11V36Z" fill="url(#paint39_radial_286_2)"/>
</g>
<g filter="url(#filter11_i_286_2)">
<path d="M129.981 36L128.367 28H127.332V33.6C126.184 34.1278 125.251 34.9676 124.664 36H129.981V36Z" fill="#3D8F7A"/>
</g>
<path d="M129.981 36L128.367 28H127.332V33.6C126.184 34.1278 125.251 34.9676 124.664 36H129.981V36Z" fill="url(#paint40_linear_286_2)"/>
<path d="M115.099 20H111.399L108.433 28H115.099V20V20Z" fill="#FAC947"/>
<path d="M115.099 20H111.399L108.433 28H115.099V20V20Z" fill="url(#paint41_linear_286_2)"/>
<g filter="url(#filter12_i_286_2)">
<path d="M120.665 31H118.966C118.066 31 117.332 31.66 117.332 32.47V36H120.665V31Z" fill="url(#paint42_linear_286_2)"/>
</g>
<path d="M121.776 28H120.665V36H121.776V28Z" fill="#3D8F7A"/>
<path d="M121.776 28H120.665V36H121.776V28Z" fill="url(#paint43_linear_286_2)"/>
<path d="M121.776 28H120.665V36H121.776V28Z" fill="url(#paint44_linear_286_2)"/>
<g filter="url(#filter13_iii_286_2)">
<path d="M130.109 41.975C131.141 41.975 132.131 41.606 132.86 40.9493C133.59 40.2925 134 39.4018 134 38.473C134 37.5442 133.59 36.6535 132.86 35.9967C132.131 35.34 131.141 34.971 130.109 34.971C129.077 34.971 128.088 35.34 127.358 35.9967C126.628 36.6535 126.218 37.5442 126.218 38.473C126.218 39.4018 126.628 40.2925 127.358 40.9493C128.088 41.606 129.077 41.975 130.109 41.975V41.975Z" fill="url(#paint45_linear_286_2)"/>
</g>
<g filter="url(#filter14_i_286_2)">
<path d="M130.109 39.727C130.479 39.727 130.833 39.5949 131.094 39.3597C131.356 39.1245 131.502 38.8056 131.502 38.473C131.502 38.1404 131.356 37.8215 131.094 37.5863C130.833 37.3511 130.479 37.219 130.109 37.219C129.74 37.219 129.385 37.3511 129.124 37.5863C128.863 37.8215 128.716 38.1404 128.716 38.473C128.716 38.8056 128.863 39.1245 129.124 39.3597C129.385 39.5949 129.74 39.727 130.109 39.727V39.727Z" fill="url(#paint46_linear_286_2)"/>
</g>
<path d="M110.302 35.02H108.624V32.01H110.302C111.224 32.01 111.979 32.68 111.979 33.52C111.968 34.34 111.224 35.02 110.302 35.02V35.02Z" fill="url(#paint47_linear_286_2)"/>
<path d="M110.302 35.02H108.624V32.01H110.302C111.224 32.01 111.979 32.68 111.979 33.52C111.968 34.34 111.224 35.02 110.302 35.02V35.02Z" fill="url(#paint48_linear_286_2)"/>
<path d="M110.302 35.02H108.624V32.01H110.302C111.224 32.01 111.979 32.68 111.979 33.52C111.968 34.34 111.224 35.02 110.302 35.02V35.02Z" fill="url(#paint49_linear_286_2)"/>
<path d="M108.624 35.02V32.01C108.013 32.01 107.513 32.46 107.513 33.01V34.02C107.513 34.57 108.013 35.02 108.624 35.02V35.02Z" fill="#FFB521"/>
<path d="M132.887 35C132.276 35 131.776 34.55 131.776 34V32.31C131.776 32.14 131.931 32 132.12 32H132.887V35Z" fill="#EE3124"/>
<path d="M111.411 20L108.822 27H110.311C111.744 27 112.899 25.96 112.899 24.67V20H111.411Z" fill="url(#paint50_linear_286_2)"/>
<path d="M111.411 20L108.822 27H110.311C111.744 27 112.899 25.96 112.899 24.67V20H111.411Z" fill="url(#paint51_linear_286_2)"/>
<defs>
<filter id="filter0_i_286_2" x="180" y="0" width="60" height="64" filterUnits="userSpaceOnUse" color-interpolation-filters="sRGB">
<feFlood flood-opacity="0" result="BackgroundImageFix"/>
<feBlend mode="normal" in="SourceGraphic" in2="BackgroundImageFix" result="shape"/>
<feColorMatrix in="SourceAlpha" type="matrix" values="0 0 0 0 0 0 0 0 0 0 0 0 0 0 0 0 0 0 127 0" result="hardAlpha"/>
<feOffset dy="4"/>
<feGaussianBlur stdDeviation="2"/>
<feComposite in2="hardAlpha" operator="arithmetic" k2="-1" k3="1"/>
<feColorMatrix type="matrix" values="0 0 0 0 0 0 0 0 0 0 0 0 0 0 0 0 0 0 0.25 0"/>
<feBlend mode="normal" in2="shape" result="effect1_innerShadow_286_2"/>
</filter>
<filter id="filter1_i_286_2" x="270" y="0" width="60" height="64" filterUnits="userSpaceOnUse" color-interpolation-filters="sRGB">
<feFlood flood-opacity="0" result="BackgroundImageFix"/>
<feBlend mode="normal" in="SourceGraphic" in2="BackgroundImageFix" result="shape"/>
<feColorMatrix in="SourceAlpha" type="matrix" values="0 0 0 0 0 0 0 0 0 0 0 0 0 0 0 0 0 0 127 0" result="hardAlpha"/>
<feOffset dy="4"/>
<feGaussianBlur stdDeviation="2"/>
<feComposite in2="hardAlpha" operator="arithmetic" k2="-1" k3="1"/>
<feColorMatrix type="matrix" values="0 0 0 0 0 0 0 0 0 0 0 0 0 0 0 0 0 0 0.25 0"/>
<feBlend mode="normal" in2="shape" result="effect1_innerShadow_286_2"/>
</filter>
<filter id="filter2_f_286_2" x="17.1875" y="17.455" width="4.01906" height="27.3853" filterUnits="userSpaceOnUse" color-interpolation-filters="sRGB">
<feFlood flood-opacity="0" result="BackgroundImageFix"/>
<feBlend mode="normal" in="SourceGraphic" in2="BackgroundImageFix" result="shape"/>
<feGaussianBlur stdDeviation="0.75" result="effect1_foregroundBlur_286_2"/>
</filter>
<filter id="filter3_ii_286_2" x="20.25" y="18.5" width="22.1875" height="22.1875" filterUnits="userSpaceOnUse" color-interpolation-filters="sRGB">
<feFlood flood-opacity="0" result="BackgroundImageFix"/>
<feBlend mode="normal" in="SourceGraphic" in2="BackgroundImageFix" result="shape"/>
<feColorMatrix in="SourceAlpha" type="matrix" values="0 0 0 0 0 0 0 0 0 0 0 0 0 0 0 0 0 0 127 0" result="hardAlpha"/>
<feOffset dx="-1.25" dy="1.25"/>
<feGaussianBlur stdDeviation="0.625"/>
<feComposite in2="hardAlpha" operator="arithmetic" k2="-1" k3="1"/>
<feColorMatrix type="matrix" values="0 0 0 0 0.262745 0 0 0 0 0.65098 0 0 0 0 0.952941 0 0 0 1 0"/>
<feBlend mode="normal" in2="shape" result="effect1_innerShadow_286_2"/>
<feColorMatrix in="SourceAlpha" type="matrix" values="0 0 0 0 0 0 0 0 0 0 0 0 0 0 0 0 0 0 127 0" result="hardAlpha"/>
<feOffset dx="1.25" dy="-1.25"/>
<feGaussianBlur stdDeviation="0.625"/>
<feComposite in2="hardAlpha" operator="arithmetic" k2="-1" k3="1"/>
<feColorMatrix type="matrix" values="0 0 0 0 0.160784 0 0 0 0 0.32549 0 0 0 0 0.572549 0 0 0 1 0"/>
<feBlend mode="normal" in2="effect1_innerShadow_286_2" result="effect2_innerShadow_286_2"/>
</filter>
<filter id="filter4_i_286_2" x="90" y="0" width="60" height="64" filterUnits="userSpaceOnUse" color-interpolation-filters="sRGB">
<feFlood flood-opacity="0" result="BackgroundImageFix"/>
<feBlend mode="normal" in="SourceGraphic" in2="BackgroundImageFix" result="shape"/>
<feColorMatrix in="SourceAlpha" type="matrix" values="0 0 0 0 0 0 0 0 0 0 0 0 0 0 0 0 0 0 127 0" result="hardAlpha"/>
<feOffset dy="4"/>
<feGaussianBlur stdDeviation="2"/>
<feComposite in2="hardAlpha" operator="arithmetic" k2="-1" k3="1"/>
<feColorMatrix type="matrix" values="0 0 0 0 0 0 0 0 0 0 0 0 0 0 0 0 0 0 0.25 0"/>
<feBlend mode="normal" in2="shape" result="effect1_innerShadow_286_2"/>
</filter>
<filter id="filter5_ii_286_2" x="120.565" y="19.657" width="1.31103" height="11.343" filterUnits="userSpaceOnUse" color-interpolation-filters="sRGB">
<feFlood flood-opacity="0" result="BackgroundImageFix"/>
<feBlend mode="normal" in="SourceGraphic" in2="BackgroundImageFix" result="shape"/>
<feColorMatrix in="SourceAlpha" type="matrix" values="0 0 0 0 0 0 0 0 0 0 0 0 0 0 0 0 0 0 127 0" result="hardAlpha"/>
<feOffset dx="0.1"/>
<feGaussianBlur stdDeviation="0.05"/>
<feComposite in2="hardAlpha" operator="arithmetic" k2="-1" k3="1"/>
<feColorMatrix type="matrix" values="0 0 0 0 0.643137 0 0 0 0 0.592157 0 0 0 0 0.607843 0 0 0 1 0"/>
<feBlend mode="normal" in2="shape" result="effect1_innerShadow_286_2"/>
<feColorMatrix in="SourceAlpha" type="matrix" values="0 0 0 0 0 0 0 0 0 0 0 0 0 0 0 0 0 0 127 0" result="hardAlpha"/>
<feOffset dx="-0.1"/>
<feGaussianBlur stdDeviation="0.05"/>
<feComposite in2="hardAlpha" operator="arithmetic" k2="-1" k3="1"/>
<feColorMatrix type="matrix" values="0 0 0 0 0.878431 0 0 0 0 0.843137 0 0 0 0 0.882353 0 0 0 1 0"/>
<feBlend mode="normal" in2="effect1_innerShadow_286_2" result="effect2_innerShadow_286_2"/>
</filter>
<filter id="filter6_ii_286_2" x="107.683" y="17.9" width="25.2927" height="13.35" filterUnits="userSpaceOnUse" color-interpolation-filters="sRGB">
<feFlood flood-opacity="0" result="BackgroundImageFix"/>
<feBlend mode="normal" in="SourceGraphic" in2="BackgroundImageFix" result="shape"/>
<feColorMatrix in="SourceAlpha" type="matrix" values="0 0 0 0 0 0 0 0 0 0 0 0 0 0 0 0 0 0 127 0" result="hardAlpha"/>
<feOffset dx="-0.75" dy="0.25"/>
<feGaussianBlur stdDeviation="0.375"/>
<feComposite in2="hardAlpha" operator="arithmetic" k2="-1" k3="1"/>
<feColorMatrix type="matrix" values="0 0 0 0 1 0 0 0 0 0.976471 0 0 0 0 0.431373 0 0 0 1 0"/>
<feBlend mode="normal" in2="shape" result="effect1_innerShadow_286_2"/>
<feColorMatrix in="SourceAlpha" type="matrix" values="0 0 0 0 0 0 0 0 0 0 0 0 0 0 0 0 0 0 127 0" result="hardAlpha"/>
<feOffset dx="0.1" dy="-0.1"/>
<feGaussianBlur stdDeviation="0.1"/>
<feComposite in2="hardAlpha" operator="arithmetic" k2="-1" k3="1"/>
<feColorMatrix type="matrix" values="0 0 0 0 0.776471 0 0 0 0 0.556863 0 0 0 0 0.243137 0 0 0 1 0"/>
<feBlend mode="normal" in2="effect1_innerShadow_286_2" result="effect2_innerShadow_286_2"/>
</filter>
<filter id="filter7_i_286_2" x="123.999" y="31" width="3.58309" height="5.25" filterUnits="userSpaceOnUse" color-interpolation-filters="sRGB">
<feFlood flood-opacity="0" result="BackgroundImageFix"/>
<feBlend mode="normal" in="SourceGraphic" in2="BackgroundImageFix" result="shape"/>
<feColorMatrix in="SourceAlpha" type="matrix" values="0 0 0 0 0 0 0 0 0 0 0 0 0 0 0 0 0 0 127 0" result="hardAlpha"/>
<feOffset dx="0.25" dy="0.25"/>
<feGaussianBlur stdDeviation="0.375"/>
<feComposite in2="hardAlpha" operator="arithmetic" k2="-1" k3="1"/>
<feColorMatrix type="matrix" values="0 0 0 0 0.0901961 0 0 0 0 0.0980392 0 0 0 0 0.160784 0 0 0 1 0"/>
<feBlend mode="normal" in2="shape" result="effect1_innerShadow_286_2"/>
</filter>
<filter id="filter8_ii_286_2" x="104.815" y="34.771" width="8.18165" height="7.204" filterUnits="userSpaceOnUse" color-interpolation-filters="sRGB">
<feFlood flood-opacity="0" result="BackgroundImageFix"/>
<feBlend mode="normal" in="SourceGraphic" in2="BackgroundImageFix" result="shape"/>
<feColorMatrix in="SourceAlpha" type="matrix" values="0 0 0 0 0 0 0 0 0 0 0 0 0 0 0 0 0 0 127 0" result="hardAlpha"/>
<feOffset dx="0.2" dy="-0.2"/>
<feGaussianBlur stdDeviation="0.2"/>
<feComposite in2="hardAlpha" operator="arithmetic" k2="-1" k3="1"/>
<feColorMatrix type="matrix" values="0 0 0 0 0.223529 0 0 0 0 0.113725 0 0 0 0 0.305882 0 0 0 1 0"/>
<feBlend mode="normal" in2="shape" result="effect1_innerShadow_286_2"/>
<feColorMatrix in="SourceAlpha" type="matrix" values="0 0 0 0 0 0 0 0 0 0 0 0 0 0 0 0 0 0 127 0" result="hardAlpha"/>
<feOffset dx="-0.2" dy="-0.2"/>
<feGaussianBlur stdDeviation="0.2"/>
<feComposite in2="hardAlpha" operator="arithmetic" k2="-1" k3="1"/>
<feColorMatrix type="matrix" values="0 0 0 0 0.188235 0 0 0 0 0.176471 0 0 0 0 0.364706 0 0 0 1 0"/>
<feBlend mode="normal" in2="effect1_innerShadow_286_2" result="effect2_innerShadow_286_2"/>
</filter>
<filter id="filter9_ii_286_2" x="107.363" y="37.119" width="3.03646" height="2.758" filterUnits="userSpaceOnUse" color-interpolation-filters="sRGB">
<feFlood flood-opacity="0" result="BackgroundImageFix"/>
<feBlend mode="normal" in="SourceGraphic" in2="BackgroundImageFix" result="shape"/>
<feColorMatrix in="SourceAlpha" type="matrix" values="0 0 0 0 0 0 0 0 0 0 0 0 0 0 0 0 0 0 127 0" result="hardAlpha"/>
<feOffset dx="-0.15" dy="0.15"/>
<feGaussianBlur stdDeviation="0.075"/>
<feComposite in2="hardAlpha" operator="arithmetic" k2="-1" k3="1"/>
<feColorMatrix type="matrix" values="0 0 0 0 0.188235 0 0 0 0 0.0901961 0 0 0 0 0.25098 0 0 0 1 0"/>
<feBlend mode="normal" in2="shape" result="effect1_innerShadow_286_2"/>
<feColorMatrix in="SourceAlpha" type="matrix" values="0 0 0 0 0 0 0 0 0 0 0 0 0 0 0 0 0 0 127 0" result="hardAlpha"/>
<feOffset dx="0.1" dy="-0.1"/>
<feGaussianBlur stdDeviation="0.075"/>
<feComposite in2="hardAlpha" operator="arithmetic" k2="-1" k3="1"/>
<feColorMatrix type="matrix" values="0 0 0 0 0.462745 0 0 0 0 0.356863 0 0 0 0 0.533333 0 0 0 1 0"/>
<feBlend mode="normal" in2="effect1_innerShadow_286_2" result="effect2_innerShadow_286_2"/>
</filter>
<filter id="filter10_ii_286_2" x="107.207" y="27.5" width="26.1802" height="11.5" filterUnits="userSpaceOnUse" color-interpolation-filters="sRGB">
<feFlood flood-opacity="0" result="BackgroundImageFix"/>
<feBlend mode="normal" in="SourceGraphic" in2="BackgroundImageFix" result="shape"/>
<feColorMatrix in="SourceAlpha" type="matrix" values="0 0 0 0 0 0 0 0 0 0 0 0 0 0 0 0 0 0 127 0" result="hardAlpha"/>
<feOffset dx="-0.75"/>
<feGaussianBlur stdDeviation="0.3"/>
<feComposite in2="hardAlpha" operator="arithmetic" k2="-1" k3="1"/>
<feColorMatrix type="matrix" values="0 0 0 0 0.309804 0 0 0 0 0.647059 0 0 0 0 0.537255 0 0 0 1 0"/>
<feBlend mode="normal" in2="shape" result="effect1_innerShadow_286_2"/>
<feColorMatrix in="SourceAlpha" type="matrix" values="0 0 0 0 0 0 0 0 0 0 0 0 0 0 0 0 0 0 127 0" result="hardAlpha"/>
<feOffset dx="0.75" dy="-0.5"/>
<feGaussianBlur stdDeviation="0.25"/>
<feComposite in2="hardAlpha" operator="arithmetic" k2="-1" k3="1"/>
<feColorMatrix type="matrix" values="0 0 0 0 0.172549 0 0 0 0 0.435294 0 0 0 0 0.431373 0 0 0 1 0"/>
<feBlend mode="normal" in2="effect1_innerShadow_286_2" result="effect2_innerShadow_286_2"/>
</filter>
<filter id="filter11_i_286_2" x="124.664" y="28" width="5.41738" height="8" filterUnits="userSpaceOnUse" color-interpolation-filters="sRGB">
<feFlood flood-opacity="0" result="BackgroundImageFix"/>
<feBlend mode="normal" in="SourceGraphic" in2="BackgroundImageFix" result="shape"/>
<feColorMatrix in="SourceAlpha" type="matrix" values="0 0 0 0 0 0 0 0 0 0 0 0 0 0 0 0 0 0 127 0" result="hardAlpha"/>
<feOffset dx="0.1"/>
<feGaussianBlur stdDeviation="0.05"/>
<feComposite in2="hardAlpha" operator="arithmetic" k2="-1" k3="1"/>
<feColorMatrix type="matrix" values="0 0 0 0 0.2 0 0 0 0 0.419608 0 0 0 0 0.352941 0 0 0 1 0"/>
<feBlend mode="normal" in2="shape" result="effect1_innerShadow_286_2"/>
</filter>
<filter id="filter12_i_286_2" x="117.332" y="31" width="3.58309" height="5.25" filterUnits="userSpaceOnUse" color-interpolation-filters="sRGB">
<feFlood flood-opacity="0" result="BackgroundImageFix"/>
<feBlend mode="normal" in="SourceGraphic" in2="BackgroundImageFix" result="shape"/>
<feColorMatrix in="SourceAlpha" type="matrix" values="0 0 0 0 0 0 0 0 0 0 0 0 0 0 0 0 0 0 127 0" result="hardAlpha"/>
<feOffset dx="0.25" dy="0.25"/>
<feGaussianBlur stdDeviation="0.375"/>
<feComposite in2="hardAlpha" operator="arithmetic" k2="-1" k3="1"/>
<feColorMatrix type="matrix" values="0 0 0 0 0.0901961 0 0 0 0 0.0980392 0 0 0 0 0.160784 0 0 0 1 0"/>
<feBlend mode="normal" in2="shape" result="effect1_innerShadow_286_2"/>
</filter>
<filter id="filter13_iii_286_2" x="126.018" y="34.771" width="8.18165" height="7.404" filterUnits="userSpaceOnUse" color-interpolation-filters="sRGB">
<feFlood flood-opacity="0" result="BackgroundImageFix"/>
<feBlend mode="normal" in="SourceGraphic" in2="BackgroundImageFix" result="shape"/>
<feColorMatrix in="SourceAlpha" type="matrix" values="0 0 0 0 0 0 0 0 0 0 0 0 0 0 0 0 0 0 127 0" result="hardAlpha"/>
<feOffset dx="0.2" dy="-0.2"/>
<feGaussianBlur stdDeviation="0.2"/>
<feComposite in2="hardAlpha" operator="arithmetic" k2="-1" k3="1"/>
<feColorMatrix type="matrix" values="0 0 0 0 0.223529 0 0 0 0 0.0941176 0 0 0 0 0.313726 0 0 0 1 0"/>
<feBlend mode="normal" in2="shape" result="effect1_innerShadow_286_2"/>
<feColorMatrix in="SourceAlpha" type="matrix" values="0 0 0 0 0 0 0 0 0 0 0 0 0 0 0 0 0 0 127 0" result="hardAlpha"/>
<feOffset dx="0.2" dy="0.2"/>
<feGaussianBlur stdDeviation="0.2"/>
<feComposite in2="hardAlpha" operator="arithmetic" k2="-1" k3="1"/>
<feColorMatrix type="matrix" values="0 0 0 0 0.223529 0 0 0 0 0.0941176 0 0 0 0 0.313726 0 0 0 1 0"/>
<feBlend mode="normal" in2="effect1_innerShadow_286_2" result="effect2_innerShadow_286_2"/>
<feColorMatrix in="SourceAlpha" type="matrix" values="0 0 0 0 0 0 0 0 0 0 0 0 0 0 0 0 0 0 127 0" result="hardAlpha"/>
<feOffset dx="-0.2" dy="0.2"/>
<feGaussianBlur stdDeviation="0.2"/>
<feComposite in2="hardAlpha" operator="arithmetic" k2="-1" k3="1"/>
<feColorMatrix type="matrix" values="0 0 0 0 0.27451 0 0 0 0 0.294118 0 0 0 0 0.470588 0 0 0 1 0"/>
<feBlend mode="normal" in2="effect2_innerShadow_286_2" result="effect3_innerShadow_286_2"/>
</filter>
<filter id="filter14_i_286_2" x="128.566" y="37.219" width="2.93646" height="2.658" filterUnits="userSpaceOnUse" color-interpolation-filters="sRGB">
<feFlood flood-opacity="0" result="BackgroundImageFix"/>
<feBlend mode="normal" in="SourceGraphic" in2="BackgroundImageFix" result="shape"/>
<feColorMatrix in="SourceAlpha" type="matrix" values="0 0 0 0 0 0 0 0 0 0 0 0 0 0 0 0 0 0 127 0" result="hardAlpha"/>
<feOffset dx="-0.15" dy="0.15"/>
<feGaussianBlur stdDeviation="0.5"/>
<feComposite in2="hardAlpha" operator="arithmetic" k2="-1" k3="1"/>
<feColorMatrix type="matrix" values="0 0 0 0 0.219608 0 0 0 0 0.105882 0 0 0 0 0.290196 0 0 0 1 0"/>
<feBlend mode="normal" in2="shape" result="effect1_innerShadow_286_2"/>
</filter>
<linearGradient id="paint0_linear_286_2" x1="16.8153" y1="31.0037" x2="19.7066" y2="31.0037" gradientUnits="userSpaceOnUse">
<stop stop-color="#625F69"/>
<stop offset="1" stop-color="#8D8BA1"/>
</linearGradient>
<radialGradient id="paint1_radial_286_2" cx="0" cy="0" r="1" gradientUnits="userSpaceOnUse" gradientTransform="translate(21.2862 17.875) rotate(104.295) scale(4.72943 3.341)">
<stop stop-color="#CBC9D2"/>
<stop offset="1" stop-color="#CBC9D2" stop-opacity="0"/>
</radialGradient>
<radialGradient id="paint2_radial_286_2" cx="0" cy="0" r="1" gradientUnits="userSpaceOnUse" gradientTransform="translate(23.4847 46.5691) rotate(-116.565) scale(9.67679 5.82014)">
<stop stop-color="#AEA1BE"/>
<stop offset="1" stop-color="#AEA1BE" stop-opacity="0"/>
</radialGradient>
<linearGradient id="paint3_linear_286_2" x1="19.1966" y1="18.955" x2="19.1966" y2="43.3403" gradientUnits="userSpaceOnUse">
<stop stop-color="#C1BEC8"/>
<stop offset="1" stop-color="#C1BEC8" stop-opacity="0"/>
</linearGradient>
<radialGradient id="paint4_radial_286_2" cx="0" cy="0" r="1" gradientUnits="userSpaceOnUse" gradientTransform="translate(18.6875 24.4956) rotate(90) scale(1.81448 3.59945)">
<stop offset="0.329" stop-color="#645775"/>
<stop offset="1" stop-color="#645775" stop-opacity="0"/>
</radialGradient>
<radialGradient id="paint5_radial_286_2" cx="0" cy="0" r="1" gradientUnits="userSpaceOnUse" gradientTransform="translate(18.6875 36.3934) rotate(90) scale(2.52651 5.01189)">
<stop offset="0.329" stop-color="#645775"/>
<stop offset="1" stop-color="#645775" stop-opacity="0"/>
</radialGradient>
<linearGradient id="paint6_linear_286_2" x1="15.8694" y1="23.4991" x2="20.5391" y2="23.4991" gradientUnits="userSpaceOnUse">
<stop stop-color="#5B5763"/>
<stop offset="1" stop-color="#B0A8BB"/>
</linearGradient>
<linearGradient id="paint7_linear_286_2" x1="19.1563" y1="21.625" x2="19.1563" y2="22.2625" gradientUnits="userSpaceOnUse">
<stop stop-color="#8A8C96"/>
<stop offset="1" stop-color="#8A8C96" stop-opacity="0"/>
</linearGradient>
<linearGradient id="paint8_linear_286_2" x1="19.8622" y1="25.8597" x2="19.8622" y2="24.475" gradientUnits="userSpaceOnUse">
<stop stop-color="#625275"/>
<stop offset="1" stop-color="#625275" stop-opacity="0"/>
</linearGradient>
<linearGradient id="paint9_linear_286_2" x1="15.8694" y1="35.6866" x2="20.5391" y2="35.6866" gradientUnits="userSpaceOnUse">
<stop stop-color="#5B5763"/>
<stop offset="1" stop-color="#B0A8BB"/>
</linearGradient>
<linearGradient id="paint10_linear_286_2" x1="19.1563" y1="33.8125" x2="19.1563" y2="34.45" gradientUnits="userSpaceOnUse">
<stop stop-color="#8A8C96"/>
<stop offset="1" stop-color="#8A8C96" stop-opacity="0"/>
</linearGradient>
<linearGradient id="paint11_linear_286_2" x1="19.8622" y1="38.0472" x2="19.8622" y2="36.6625" gradientUnits="userSpaceOnUse">
<stop stop-color="#625275"/>
<stop offset="1" stop-color="#625275" stop-opacity="0"/>
</linearGradient>
<linearGradient id="paint12_linear_286_2" x1="24.6059" y1="37.9731" x2="39.8403" y2="21.3906" gradientUnits="userSpaceOnUse">
<stop stop-color="#3C7BD2"/>
<stop offset="1" stop-color="#3893E1"/>
</linearGradient>
<linearGradient id="paint13_linear_286_2" x1="31.3438" y1="40.0825" x2="31.3438" y2="37.6797" gradientUnits="userSpaceOnUse">
<stop stop-color="#3054C2"/>
<stop offset="1" stop-color="#3054C2" stop-opacity="0"/>
</linearGradient>
<radialGradient id="paint14_radial_286_2" cx="0" cy="0" r="1" gradientUnits="userSpaceOnUse" gradientTransform="translate(40.9817 20.1607) rotate(130.192) scale(2.22444 1.8548)">
<stop offset="0.141" stop-color="#52BBFF"/>
<stop offset="1" stop-color="#52BBFF" stop-opacity="0"/>
</radialGradient>
<linearGradient id="paint15_linear_286_2" x1="34.5631" y1="34.8766" x2="36.4747" y2="34.8766" gradientUnits="userSpaceOnUse">
<stop stop-color="#5C4373"/>
<stop offset="1" stop-color="#3F3944"/>
</linearGradient>
<linearGradient id="paint16_linear_286_2" x1="26.2128" y1="34.8766" x2="28.1244" y2="34.8766" gradientUnits="userSpaceOnUse">
<stop stop-color="#5C4373"/>
<stop offset="1" stop-color="#3F3944"/>
</linearGradient>
<linearGradient id="paint17_linear_286_2" x1="36.4681" y1="28.6337" x2="36.9116" y2="28.6337" gradientUnits="userSpaceOnUse">
<stop stop-color="#3D3740"/>
<stop offset="1" stop-color="#453A4E"/>
</linearGradient>
<linearGradient id="paint18_linear_286_2" x1="25.7553" y1="28.6337" x2="26.1359" y2="28.6337" gradientUnits="userSpaceOnUse">
<stop stop-color="#3D3740"/>
<stop offset="1" stop-color="#453A4E"/>
</linearGradient>
<linearGradient id="paint19_linear_286_2" x1="26.9234" y1="23.6397" x2="37.3231" y2="32.7822" gradientUnits="userSpaceOnUse">
<stop stop-color="#D1C4D9"/>
<stop offset="1" stop-color="#DDCDE7"/>
</linearGradient>
<linearGradient id="paint20_linear_286_2" x1="36.9828" y1="28.2531" x2="37.8406" y2="28.2531" gradientUnits="userSpaceOnUse">
<stop stop-color="#3F3742"/>
<stop offset="1" stop-color="#543F68"/>
</linearGradient>
<linearGradient id="paint21_linear_286_2" x1="24.9116" y1="28.2531" x2="25.7694" y2="28.2531" gradientUnits="userSpaceOnUse">
<stop stop-color="#3F3742"/>
<stop offset="1" stop-color="#543F68"/>
</linearGradient>
<linearGradient id="paint22_linear_286_2" x1="27.3134" y1="30.9709" x2="34.0081" y2="34.57" gradientUnits="userSpaceOnUse">
<stop stop-color="#EEB742"/>
<stop offset="1" stop-color="#E2A53E"/>
</linearGradient>
<linearGradient id="paint23_linear_286_2" x1="27.1691" y1="27.4666" x2="35.5184" y2="27.4666" gradientUnits="userSpaceOnUse">
<stop stop-color="#389BEC"/>
<stop offset="1" stop-color="#57D4F4"/>
</linearGradient>
<linearGradient id="paint24_linear_286_2" x1="27.1691" y1="25.7134" x2="35.5184" y2="25.7134" gradientUnits="userSpaceOnUse">
<stop stop-color="#403B44"/>
<stop offset="1" stop-color="#5A436E"/>
</linearGradient>
<linearGradient id="paint25_linear_286_2" x1="28.5734" y1="31.7509" x2="34.1431" y2="31.7509" gradientUnits="userSpaceOnUse">
<stop stop-color="#5B5360"/>
<stop offset="1" stop-color="#68606D"/>
</linearGradient>
<linearGradient id="paint26_linear_286_2" x1="29.4903" y1="32.6875" x2="33.1972" y2="32.6875" gradientUnits="userSpaceOnUse">
<stop stop-color="#5B5360"/>
<stop offset="1" stop-color="#68606D"/>
</linearGradient>
<linearGradient id="paint27_linear_286_2" x1="26.2128" y1="32.7484" x2="27.4653" y2="32.7484" gradientUnits="userSpaceOnUse">
<stop stop-color="#C7B8D1"/>
<stop offset="1" stop-color="#DECEE6"/>
</linearGradient>
<linearGradient id="paint28_linear_286_2" x1="35.06" y1="32.4438" x2="36.7747" y2="32.4438" gradientUnits="userSpaceOnUse">
<stop stop-color="#C7B8D1"/>
<stop offset="1" stop-color="#DECEE6"/>
</linearGradient>
<linearGradient id="paint29_linear_286_2" x1="109.896" y1="18" x2="111.85" y2="19.3615" gradientUnits="userSpaceOnUse">
<stop stop-color="#CCAE62"/>
<stop offset="1" stop-color="#CCAE62" stop-opacity="0"/>
</linearGradient>
<linearGradient id="paint30_linear_286_2" x1="124.278" y1="33.505" x2="127.578" y2="33.505" gradientUnits="userSpaceOnUse">
<stop stop-color="#322A58"/>
<stop offset="1" stop-color="#1E1B3D"/>
</linearGradient>
<linearGradient id="paint31_linear_286_2" x1="105.019" y1="38.478" x2="112.799" y2="38.478" gradientUnits="userSpaceOnUse">
<stop stop-color="#421D46"/>
<stop offset="1" stop-color="#2A2453"/>
</linearGradient>
<linearGradient id="paint32_linear_286_2" x1="108.906" y1="37.469" x2="108.906" y2="38.844" gradientUnits="userSpaceOnUse">
<stop stop-color="#0C0C32"/>
<stop offset="1" stop-color="#0C0C32" stop-opacity="0"/>
</linearGradient>
<linearGradient id="paint33_linear_286_2" x1="112.506" y1="37.907" x2="111.703" y2="38.5535" gradientUnits="userSpaceOnUse">
<stop stop-color="#0C0C32"/>
<stop offset="1" stop-color="#0C0C32" stop-opacity="0"/>
</linearGradient>
<linearGradient id="paint34_linear_286_2" x1="109.209" y1="37.657" x2="109.209" y2="39.5" gradientUnits="userSpaceOnUse">
<stop stop-color="#655774"/>
<stop offset="1" stop-color="#90799F"/>
</linearGradient>
<radialGradient id="paint35_radial_286_2" cx="0" cy="0" r="1" gradientUnits="userSpaceOnUse" gradientTransform="translate(110.771 35.095) rotate(180) scale(3.95804 1.9)">
<stop offset="0.238" stop-color="#265A52"/>
<stop offset="1" stop-color="#265A52" stop-opacity="0"/>
</radialGradient>
<linearGradient id="paint36_linear_286_2" x1="111.308" y1="35.86" x2="110.363" y2="36.3759" gradientUnits="userSpaceOnUse">
<stop offset="0.153" stop-color="#265A52"/>
<stop offset="1" stop-color="#265A52" stop-opacity="0"/>
</linearGradient>
<radialGradient id="paint37_radial_286_2" cx="0" cy="0" r="1" gradientUnits="userSpaceOnUse" gradientTransform="translate(110.11 38.0008) rotate(-134.615) scale(5.88266 6.70025)">
<stop offset="0.735" stop-color="#347A60" stop-opacity="0"/>
<stop offset="1" stop-color="#347A60"/>
</radialGradient>
<linearGradient id="paint38_linear_286_2" x1="109" y1="38" x2="109" y2="37.766" gradientUnits="userSpaceOnUse">
<stop stop-color="#395268"/>
<stop offset="1" stop-color="#395268" stop-opacity="0"/>
</linearGradient>
<radialGradient id="paint39_radial_286_2" cx="0" cy="0" r="1" gradientUnits="userSpaceOnUse" gradientTransform="translate(110.66 34.524) rotate(146.275) scale(1.25234 1.07198)">
<stop offset="0.307" stop-color="#275353"/>
<stop offset="1" stop-color="#275353" stop-opacity="0"/>
</radialGradient>
<linearGradient id="paint40_linear_286_2" x1="127.88" y1="27.899" x2="127.669" y2="28.362" gradientUnits="userSpaceOnUse">
<stop stop-color="#3D8F7A"/>
<stop offset="1" stop-color="#3D8F7A" stop-opacity="0"/>
</linearGradient>
<linearGradient id="paint41_linear_286_2" x1="115.099" y1="24" x2="114.896" y2="24" gradientUnits="userSpaceOnUse">
<stop offset="0.23" stop-color="#FFDD55"/>
<stop offset="1" stop-color="#FFDD55" stop-opacity="0"/>
</linearGradient>
<linearGradient id="paint42_linear_286_2" x1="117.332" y1="33.505" x2="120.665" y2="33.505" gradientUnits="userSpaceOnUse">
<stop stop-color="#382452"/>
<stop offset="1" stop-color="#1F162D"/>
</linearGradient>
<linearGradient id="paint43_linear_286_2" x1="120.665" y1="28.688" x2="120.841" y2="28.688" gradientUnits="userSpaceOnUse">
<stop stop-color="#306D56"/>
<stop offset="1" stop-color="#306D56" stop-opacity="0"/>
</linearGradient>
<linearGradient id="paint44_linear_286_2" x1="121.735" y1="29.094" x2="121.596" y2="29.094" gradientUnits="userSpaceOnUse">
<stop stop-color="#479982"/>
<stop offset="1" stop-color="#479982" stop-opacity="0"/>
</linearGradient>
<linearGradient id="paint45_linear_286_2" x1="126.221" y1="38.478" x2="134.002" y2="38.478" gradientUnits="userSpaceOnUse">
<stop stop-color="#421D46"/>
<stop offset="1" stop-color="#2A2453"/>
</linearGradient>
<linearGradient id="paint46_linear_286_2" x1="128.716" y1="38.478" x2="131.502" y2="38.478" gradientUnits="userSpaceOnUse">
<stop stop-color="#D8D8D8"/>
<stop offset="1" stop-color="#F2F2F2"/>
</linearGradient>
<linearGradient id="paint47_linear_286_2" x1="110.302" y1="32.563" x2="110.302" y2="34.688" gradientUnits="userSpaceOnUse">
<stop stop-color="#5BEA97"/>
<stop offset="1" stop-color="#40A37C"/>
</linearGradient>
<linearGradient id="paint48_linear_286_2" x1="110.302" y1="35.375" x2="110.302" y2="34.407" gradientUnits="userSpaceOnUse">
<stop stop-color="#316E65"/>
<stop offset="1" stop-color="#316E65" stop-opacity="0"/>
</linearGradient>
<linearGradient id="paint49_linear_286_2" x1="112.419" y1="33.688" x2="110.857" y2="33.688" gradientUnits="userSpaceOnUse">
<stop stop-color="#67FCA3"/>
<stop offset="1" stop-color="#67FCA3" stop-opacity="0"/>
</linearGradient>
<linearGradient id="paint50_linear_286_2" x1="109.462" y1="23.505" x2="112.171" y2="23.505" gradientUnits="userSpaceOnUse">
<stop stop-color="#4ED1FD"/>
<stop offset="1" stop-color="#3E9DDD"/>
</linearGradient>
<linearGradient id="paint51_linear_286_2" x1="113.316" y1="24.219" x2="112.032" y2="24.219" gradientUnits="userSpaceOnUse">
<stop stop-color="#4FB7E7"/>
<stop offset="1" stop-color="#4FB7E7" stop-opacity="0"/>
</linearGradient>
<clipPath id="clip0_286_2">
<rect width="30" height="30" fill="white" transform="translate(285 14)"/>
</clipPath>
</defs>
</svg>
