<svg width="60" height="60" viewBox="0 0 60 60" fill="none" xmlns="http://www.w3.org/2000/svg">
<g filter="url(#filter0_i_254_293)">
<circle cx="30" cy="30" r="30" fill="#0D3B66"/>
</g>
<g filter="url(#filter1_ii_254_293)">
<path d="M31.7765 19.657H30.6654V31H31.7765V19.657Z" fill="#D0C5D4"/>
</g>
<g filter="url(#filter2_ii_254_293)">
<path d="M37.4094 18H21.6994C20.4217 18 19.2774 18.74 18.8774 19.83C18.8441 19.91 18.9107 20 19.0107 20H21.3995L18.433 28H25.0992V20H37.3205V31H42.8756V22.93C42.8867 20.21 40.4314 18 37.4094 18Z" fill="#F6C547"/>
<path d="M37.4094 18H21.6994C20.4217 18 19.2774 18.74 18.8774 19.83C18.8441 19.91 18.9107 20 19.0107 20H21.3995L18.433 28H25.0992V20H37.3205V31H42.8756V22.93C42.8867 20.21 40.4314 18 37.4094 18Z" fill="url(#paint0_linear_254_293)"/>
</g>
<g filter="url(#filter3_i_254_293)">
<path d="M37.3316 31H35.6317C34.7318 31 33.9985 31.66 33.9985 32.47V36H37.3316V31Z" fill="url(#paint1_linear_254_293)"/>
</g>
<g filter="url(#filter4_ii_254_293)">
<path d="M18.9063 41.975C19.9382 41.975 20.9279 41.606 21.6575 40.9493C22.3872 40.2925 22.7971 39.4018 22.7971 38.473C22.7971 37.5442 22.3872 36.6535 21.6575 35.9967C20.9279 35.34 19.9382 34.971 18.9063 34.971C17.8744 34.971 16.8847 35.34 16.1551 35.9967C15.4254 36.6535 15.0155 37.5442 15.0155 38.473C15.0155 39.4018 15.4254 40.2925 16.1551 40.9493C16.8847 41.606 17.8744 41.975 18.9063 41.975Z" fill="url(#paint2_linear_254_293)"/>
<path d="M18.9063 41.975C19.9382 41.975 20.9279 41.606 21.6575 40.9493C22.3872 40.2925 22.7971 39.4018 22.7971 38.473C22.7971 37.5442 22.3872 36.6535 21.6575 35.9967C20.9279 35.34 19.9382 34.971 18.9063 34.971C17.8744 34.971 16.8847 35.34 16.1551 35.9967C15.4254 36.6535 15.0155 37.5442 15.0155 38.473C15.0155 39.4018 15.4254 40.2925 16.1551 40.9493C16.8847 41.606 17.8744 41.975 18.9063 41.975Z" fill="url(#paint3_linear_254_293)"/>
<path d="M18.9063 41.975C19.9382 41.975 20.9279 41.606 21.6575 40.9493C22.3872 40.2925 22.7971 39.4018 22.7971 38.473C22.7971 37.5442 22.3872 36.6535 21.6575 35.9967C20.9279 35.34 19.9382 34.971 18.9063 34.971C17.8744 34.971 16.8847 35.34 16.1551 35.9967C15.4254 36.6535 15.0155 37.5442 15.0155 38.473C15.0155 39.4018 15.4254 40.2925 16.1551 40.9493C16.8847 41.606 17.8744 41.975 18.9063 41.975Z" fill="url(#paint4_linear_254_293)"/>
</g>
<g filter="url(#filter5_ii_254_293)">
<path d="M18.9063 39.727C19.2758 39.727 19.6302 39.5949 19.8915 39.3597C20.1527 39.1245 20.2995 38.8056 20.2995 38.473C20.2995 38.1404 20.1527 37.8215 19.8915 37.5863C19.6302 37.3511 19.2758 37.219 18.9063 37.219C18.5368 37.219 18.1824 37.3511 17.9211 37.5863C17.6599 37.8215 17.5131 38.1404 17.5131 38.473C17.5131 38.8056 17.6599 39.1245 17.9211 39.3597C18.1824 39.5949 18.5368 39.727 18.9063 39.727Z" fill="url(#paint5_linear_254_293)"/>
</g>
<path d="M23.8104 38C23.9104 38 23.9993 37.92 23.9993 37.83C23.9485 36.6668 23.3996 35.5664 22.4677 34.7593C21.5357 33.9522 20.293 33.5009 18.9996 33.5C17.7057 33.4992 16.4619 33.9499 15.5295 34.7574C14.5971 35.5648 14.0489 36.6662 14 37.83C14 37.92 14.0778 38 14.1889 38H23.8104Z" fill="#3B8676"/>
<path d="M23.8104 38C23.9104 38 23.9993 37.92 23.9993 37.83C23.9485 36.6668 23.3996 35.5664 22.4677 34.7593C21.5357 33.9522 20.293 33.5009 18.9996 33.5C17.7057 33.4992 16.4619 33.9499 15.5295 34.7574C14.5971 35.5648 14.0489 36.6662 14 37.83C14 37.92 14.0778 38 14.1889 38H23.8104Z" fill="url(#paint6_radial_254_293)"/>
<path d="M23.8104 38C23.9104 38 23.9993 37.92 23.9993 37.83C23.9485 36.6668 23.3996 35.5664 22.4677 34.7593C21.5357 33.9522 20.293 33.5009 18.9996 33.5C17.7057 33.4992 16.4619 33.9499 15.5295 34.7574C14.5971 35.5648 14.0489 36.6662 14 37.83C14 37.92 14.0778 38 14.1889 38H23.8104Z" fill="url(#paint7_linear_254_293)"/>
<path d="M23.8104 38C23.9104 38 23.9993 37.92 23.9993 37.83C23.9485 36.6668 23.3996 35.5664 22.4677 34.7593C21.5357 33.9522 20.293 33.5009 18.9996 33.5C17.7057 33.4992 16.4619 33.9499 15.5295 34.7574C14.5971 35.5648 14.0489 36.6662 14 37.83C14 37.92 14.0778 38 14.1889 38H23.8104Z" fill="url(#paint8_radial_254_293)"/>
<path d="M23.8104 38C23.9104 38 23.9993 37.92 23.9993 37.83C23.9485 36.6668 23.3996 35.5664 22.4677 34.7593C21.5357 33.9522 20.293 33.5009 18.9996 33.5C17.7057 33.4992 16.4619 33.9499 15.5295 34.7574C14.5971 35.5648 14.0489 36.6662 14 37.83C14 37.92 14.0778 38 14.1889 38H23.8104Z" fill="url(#paint9_linear_254_293)"/>
<g filter="url(#filter6_ii_254_293)">
<path d="M25.1103 36V28H18.4441L18.1108 28.9C17.6108 30.24 17.7331 31.71 18.433 32.98L21.2139 37.997H22.2427L22.7649 39H42.8868V28H37.3316V33.6C36.1843 34.1278 35.2509 34.9676 34.664 36H25.1103Z" fill="#3D8F7A"/>
<path d="M25.1103 36V28H18.4441L18.1108 28.9C17.6108 30.24 17.7331 31.71 18.433 32.98L21.2139 37.997H22.2427L22.7649 39H42.8868V28H37.3316V33.6C36.1843 34.1278 35.2509 34.9676 34.664 36H25.1103Z" fill="url(#paint10_radial_254_293)"/>
</g>
<g filter="url(#filter7_i_254_293)">
<path d="M39.9814 36L38.3671 28H37.3316V33.6C36.1843 34.1278 35.2509 34.9676 34.664 36H39.9814Z" fill="#3D8F7A"/>
</g>
<path d="M39.9814 36L38.3671 28H37.3316V33.6C36.1843 34.1278 35.2509 34.9676 34.664 36H39.9814Z" fill="url(#paint11_linear_254_293)"/>
<path d="M25.0992 20H21.3995L18.433 28H25.0992V20Z" fill="#FAC947"/>
<path d="M25.0992 20H21.3995L18.433 28H25.0992V20Z" fill="url(#paint12_linear_254_293)"/>
<g filter="url(#filter8_i_254_293)">
<path d="M30.6654 31H28.9656C28.0656 31 27.3323 31.66 27.3323 32.47V36H30.6654V31Z" fill="url(#paint13_linear_254_293)"/>
</g>
<path d="M31.7765 28H30.6654V36H31.7765V28Z" fill="#3D8F7A"/>
<path d="M31.7765 28H30.6654V36H31.7765V28Z" fill="url(#paint14_linear_254_293)"/>
<path d="M31.7765 28H30.6654V36H31.7765V28Z" fill="url(#paint15_linear_254_293)"/>
<g filter="url(#filter9_iii_254_293)">
<path d="M40.1092 41.975C41.1411 41.975 42.1307 41.606 42.8604 40.9493C43.5901 40.2925 44 39.4018 44 38.473C44 37.5442 43.5901 36.6535 42.8604 35.9967C42.1307 35.34 41.1411 34.971 40.1092 34.971C39.0773 34.971 38.0876 35.34 37.358 35.9967C36.6283 36.6535 36.2184 37.5442 36.2184 38.473C36.2184 39.4018 36.6283 40.2925 37.358 40.9493C38.0876 41.606 39.0773 41.975 40.1092 41.975Z" fill="url(#paint16_linear_254_293)"/>
</g>
<g filter="url(#filter10_i_254_293)">
<path d="M40.1092 39.727C40.4787 39.727 40.8331 39.5949 41.0943 39.3597C41.3556 39.1245 41.5024 38.8056 41.5024 38.473C41.5024 38.1404 41.3556 37.8215 41.0943 37.5863C40.8331 37.3511 40.4787 37.219 40.1092 37.219C39.7397 37.219 39.3853 37.3511 39.124 37.5863C38.8627 37.8215 38.7159 38.1404 38.7159 38.473C38.7159 38.8056 38.8627 39.1245 39.124 39.3597C39.3853 39.5949 39.7397 39.727 40.1092 39.727Z" fill="url(#paint17_linear_254_293)"/>
</g>
<path d="M20.3018 35.02H18.6241V32.01H20.3018C21.2239 32.01 21.9794 32.68 21.9794 33.52C21.9683 34.34 21.2239 35.02 20.3018 35.02Z" fill="url(#paint18_linear_254_293)"/>
<path d="M20.3018 35.02H18.6241V32.01H20.3018C21.2239 32.01 21.9794 32.68 21.9794 33.52C21.9683 34.34 21.2239 35.02 20.3018 35.02Z" fill="url(#paint19_linear_254_293)"/>
<path d="M20.3018 35.02H18.6241V32.01H20.3018C21.2239 32.01 21.9794 32.68 21.9794 33.52C21.9683 34.34 21.2239 35.02 20.3018 35.02Z" fill="url(#paint20_linear_254_293)"/>
<path d="M18.6241 35.02V32.01C18.013 32.01 17.5131 32.46 17.5131 33.01V34.02C17.5131 34.57 18.013 35.02 18.6241 35.02Z" fill="#FFB521"/>
<path d="M42.8867 35C42.2757 35 41.7757 34.55 41.7757 34V32.31C41.7757 32.14 41.9313 32 42.1201 32H42.8867V35Z" fill="#EE3124"/>
<path d="M21.4106 20L18.8219 27H20.3106C21.7439 27 22.8993 25.96 22.8993 24.67V20H21.4106Z" fill="url(#paint21_linear_254_293)"/>
<path d="M21.4106 20L18.8219 27H20.3106C21.7439 27 22.8993 25.96 22.8993 24.67V20H21.4106Z" fill="url(#paint22_linear_254_293)"/>
<defs>
<filter id="filter0_i_254_293" x="0" y="0" width="60" height="64" filterUnits="userSpaceOnUse" color-interpolation-filters="sRGB">
<feFlood flood-opacity="0" result="BackgroundImageFix"/>
<feBlend mode="normal" in="SourceGraphic" in2="BackgroundImageFix" result="shape"/>
<feColorMatrix in="SourceAlpha" type="matrix" values="0 0 0 0 0 0 0 0 0 0 0 0 0 0 0 0 0 0 127 0" result="hardAlpha"/>
<feOffset dy="4"/>
<feGaussianBlur stdDeviation="2"/>
<feComposite in2="hardAlpha" operator="arithmetic" k2="-1" k3="1"/>
<feColorMatrix type="matrix" values="0 0 0 0 0 0 0 0 0 0 0 0 0 0 0 0 0 0 0.25 0"/>
<feBlend mode="normal" in2="shape" result="effect1_innerShadow_254_293"/>
</filter>
<filter id="filter1_ii_254_293" x="30.5654" y="19.657" width="1.31103" height="11.343" filterUnits="userSpaceOnUse" color-interpolation-filters="sRGB">
<feFlood flood-opacity="0" result="BackgroundImageFix"/>
<feBlend mode="normal" in="SourceGraphic" in2="BackgroundImageFix" result="shape"/>
<feColorMatrix in="SourceAlpha" type="matrix" values="0 0 0 0 0 0 0 0 0 0 0 0 0 0 0 0 0 0 127 0" result="hardAlpha"/>
<feOffset dx="0.1"/>
<feGaussianBlur stdDeviation="0.05"/>
<feComposite in2="hardAlpha" operator="arithmetic" k2="-1" k3="1"/>
<feColorMatrix type="matrix" values="0 0 0 0 0.643137 0 0 0 0 0.592157 0 0 0 0 0.607843 0 0 0 1 0"/>
<feBlend mode="normal" in2="shape" result="effect1_innerShadow_254_293"/>
<feColorMatrix in="SourceAlpha" type="matrix" values="0 0 0 0 0 0 0 0 0 0 0 0 0 0 0 0 0 0 127 0" result="hardAlpha"/>
<feOffset dx="-0.1"/>
<feGaussianBlur stdDeviation="0.05"/>
<feComposite in2="hardAlpha" operator="arithmetic" k2="-1" k3="1"/>
<feColorMatrix type="matrix" values="0 0 0 0 0.878431 0 0 0 0 0.843137 0 0 0 0 0.882353 0 0 0 1 0"/>
<feBlend mode="normal" in2="effect1_innerShadow_254_293" result="effect2_innerShadow_254_293"/>
</filter>
<filter id="filter2_ii_254_293" x="17.683" y="17.9" width="25.2927" height="13.35" filterUnits="userSpaceOnUse" color-interpolation-filters="sRGB">
<feFlood flood-opacity="0" result="BackgroundImageFix"/>
<feBlend mode="normal" in="SourceGraphic" in2="BackgroundImageFix" result="shape"/>
<feColorMatrix in="SourceAlpha" type="matrix" values="0 0 0 0 0 0 0 0 0 0 0 0 0 0 0 0 0 0 127 0" result="hardAlpha"/>
<feOffset dx="-0.75" dy="0.25"/>
<feGaussianBlur stdDeviation="0.375"/>
<feComposite in2="hardAlpha" operator="arithmetic" k2="-1" k3="1"/>
<feColorMatrix type="matrix" values="0 0 0 0 1 0 0 0 0 0.976471 0 0 0 0 0.431373 0 0 0 1 0"/>
<feBlend mode="normal" in2="shape" result="effect1_innerShadow_254_293"/>
<feColorMatrix in="SourceAlpha" type="matrix" values="0 0 0 0 0 0 0 0 0 0 0 0 0 0 0 0 0 0 127 0" result="hardAlpha"/>
<feOffset dx="0.1" dy="-0.1"/>
<feGaussianBlur stdDeviation="0.1"/>
<feComposite in2="hardAlpha" operator="arithmetic" k2="-1" k3="1"/>
<feColorMatrix type="matrix" values="0 0 0 0 0.776471 0 0 0 0 0.556863 0 0 0 0 0.243137 0 0 0 1 0"/>
<feBlend mode="normal" in2="effect1_innerShadow_254_293" result="effect2_innerShadow_254_293"/>
</filter>
<filter id="filter3_i_254_293" x="33.9985" y="31" width="3.58309" height="5.25" filterUnits="userSpaceOnUse" color-interpolation-filters="sRGB">
<feFlood flood-opacity="0" result="BackgroundImageFix"/>
<feBlend mode="normal" in="SourceGraphic" in2="BackgroundImageFix" result="shape"/>
<feColorMatrix in="SourceAlpha" type="matrix" values="0 0 0 0 0 0 0 0 0 0 0 0 0 0 0 0 0 0 127 0" result="hardAlpha"/>
<feOffset dx="0.25" dy="0.25"/>
<feGaussianBlur stdDeviation="0.375"/>
<feComposite in2="hardAlpha" operator="arithmetic" k2="-1" k3="1"/>
<feColorMatrix type="matrix" values="0 0 0 0 0.0901961 0 0 0 0 0.0980392 0 0 0 0 0.160784 0 0 0 1 0"/>
<feBlend mode="normal" in2="shape" result="effect1_innerShadow_254_293"/>
</filter>
<filter id="filter4_ii_254_293" x="14.8155" y="34.771" width="8.18165" height="7.204" filterUnits="userSpaceOnUse" color-interpolation-filters="sRGB">
<feFlood flood-opacity="0" result="BackgroundImageFix"/>
<feBlend mode="normal" in="SourceGraphic" in2="BackgroundImageFix" result="shape"/>
<feColorMatrix in="SourceAlpha" type="matrix" values="0 0 0 0 0 0 0 0 0 0 0 0 0 0 0 0 0 0 127 0" result="hardAlpha"/>
<feOffset dx="0.2" dy="-0.2"/>
<feGaussianBlur stdDeviation="0.2"/>
<feComposite in2="hardAlpha" operator="arithmetic" k2="-1" k3="1"/>
<feColorMatrix type="matrix" values="0 0 0 0 0.223529 0 0 0 0 0.113725 0 0 0 0 0.305882 0 0 0 1 0"/>
<feBlend mode="normal" in2="shape" result="effect1_innerShadow_254_293"/>
<feColorMatrix in="SourceAlpha" type="matrix" values="0 0 0 0 0 0 0 0 0 0 0 0 0 0 0 0 0 0 127 0" result="hardAlpha"/>
<feOffset dx="-0.2" dy="-0.2"/>
<feGaussianBlur stdDeviation="0.2"/>
<feComposite in2="hardAlpha" operator="arithmetic" k2="-1" k3="1"/>
<feColorMatrix type="matrix" values="0 0 0 0 0.188235 0 0 0 0 0.176471 0 0 0 0 0.364706 0 0 0 1 0"/>
<feBlend mode="normal" in2="effect1_innerShadow_254_293" result="effect2_innerShadow_254_293"/>
</filter>
<filter id="filter5_ii_254_293" x="17.3631" y="37.119" width="3.03646" height="2.758" filterUnits="userSpaceOnUse" color-interpolation-filters="sRGB">
<feFlood flood-opacity="0" result="BackgroundImageFix"/>
<feBlend mode="normal" in="SourceGraphic" in2="BackgroundImageFix" result="shape"/>
<feColorMatrix in="SourceAlpha" type="matrix" values="0 0 0 0 0 0 0 0 0 0 0 0 0 0 0 0 0 0 127 0" result="hardAlpha"/>
<feOffset dx="-0.15" dy="0.15"/>
<feGaussianBlur stdDeviation="0.075"/>
<feComposite in2="hardAlpha" operator="arithmetic" k2="-1" k3="1"/>
<feColorMatrix type="matrix" values="0 0 0 0 0.188235 0 0 0 0 0.0901961 0 0 0 0 0.25098 0 0 0 1 0"/>
<feBlend mode="normal" in2="shape" result="effect1_innerShadow_254_293"/>
<feColorMatrix in="SourceAlpha" type="matrix" values="0 0 0 0 0 0 0 0 0 0 0 0 0 0 0 0 0 0 127 0" result="hardAlpha"/>
<feOffset dx="0.1" dy="-0.1"/>
<feGaussianBlur stdDeviation="0.075"/>
<feComposite in2="hardAlpha" operator="arithmetic" k2="-1" k3="1"/>
<feColorMatrix type="matrix" values="0 0 0 0 0.462745 0 0 0 0 0.356863 0 0 0 0 0.533333 0 0 0 1 0"/>
<feBlend mode="normal" in2="effect1_innerShadow_254_293" result="effect2_innerShadow_254_293"/>
</filter>
<filter id="filter6_ii_254_293" x="17.2065" y="27.5" width="26.1802" height="11.5" filterUnits="userSpaceOnUse" color-interpolation-filters="sRGB">
<feFlood flood-opacity="0" result="BackgroundImageFix"/>
<feBlend mode="normal" in="SourceGraphic" in2="BackgroundImageFix" result="shape"/>
<feColorMatrix in="SourceAlpha" type="matrix" values="0 0 0 0 0 0 0 0 0 0 0 0 0 0 0 0 0 0 127 0" result="hardAlpha"/>
<feOffset dx="-0.75"/>
<feGaussianBlur stdDeviation="0.3"/>
<feComposite in2="hardAlpha" operator="arithmetic" k2="-1" k3="1"/>
<feColorMatrix type="matrix" values="0 0 0 0 0.309804 0 0 0 0 0.647059 0 0 0 0 0.537255 0 0 0 1 0"/>
<feBlend mode="normal" in2="shape" result="effect1_innerShadow_254_293"/>
<feColorMatrix in="SourceAlpha" type="matrix" values="0 0 0 0 0 0 0 0 0 0 0 0 0 0 0 0 0 0 127 0" result="hardAlpha"/>
<feOffset dx="0.75" dy="-0.5"/>
<feGaussianBlur stdDeviation="0.25"/>
<feComposite in2="hardAlpha" operator="arithmetic" k2="-1" k3="1"/>
<feColorMatrix type="matrix" values="0 0 0 0 0.172549 0 0 0 0 0.435294 0 0 0 0 0.431373 0 0 0 1 0"/>
<feBlend mode="normal" in2="effect1_innerShadow_254_293" result="effect2_innerShadow_254_293"/>
</filter>
<filter id="filter7_i_254_293" x="34.664" y="28" width="5.41738" height="8" filterUnits="userSpaceOnUse" color-interpolation-filters="sRGB">
<feFlood flood-opacity="0" result="BackgroundImageFix"/>
<feBlend mode="normal" in="SourceGraphic" in2="BackgroundImageFix" result="shape"/>
<feColorMatrix in="SourceAlpha" type="matrix" values="0 0 0 0 0 0 0 0 0 0 0 0 0 0 0 0 0 0 127 0" result="hardAlpha"/>
<feOffset dx="0.1"/>
<feGaussianBlur stdDeviation="0.05"/>
<feComposite in2="hardAlpha" operator="arithmetic" k2="-1" k3="1"/>
<feColorMatrix type="matrix" values="0 0 0 0 0.2 0 0 0 0 0.419608 0 0 0 0 0.352941 0 0 0 1 0"/>
<feBlend mode="normal" in2="shape" result="effect1_innerShadow_254_293"/>
</filter>
<filter id="filter8_i_254_293" x="27.3323" y="31" width="3.58309" height="5.25" filterUnits="userSpaceOnUse" color-interpolation-filters="sRGB">
<feFlood flood-opacity="0" result="BackgroundImageFix"/>
<feBlend mode="normal" in="SourceGraphic" in2="BackgroundImageFix" result="shape"/>
<feColorMatrix in="SourceAlpha" type="matrix" values="0 0 0 0 0 0 0 0 0 0 0 0 0 0 0 0 0 0 127 0" result="hardAlpha"/>
<feOffset dx="0.25" dy="0.25"/>
<feGaussianBlur stdDeviation="0.375"/>
<feComposite in2="hardAlpha" operator="arithmetic" k2="-1" k3="1"/>
<feColorMatrix type="matrix" values="0 0 0 0 0.0901961 0 0 0 0 0.0980392 0 0 0 0 0.160784 0 0 0 1 0"/>
<feBlend mode="normal" in2="shape" result="effect1_innerShadow_254_293"/>
</filter>
<filter id="filter9_iii_254_293" x="36.0184" y="34.771" width="8.18165" height="7.404" filterUnits="userSpaceOnUse" color-interpolation-filters="sRGB">
<feFlood flood-opacity="0" result="BackgroundImageFix"/>
<feBlend mode="normal" in="SourceGraphic" in2="BackgroundImageFix" result="shape"/>
<feColorMatrix in="SourceAlpha" type="matrix" values="0 0 0 0 0 0 0 0 0 0 0 0 0 0 0 0 0 0 127 0" result="hardAlpha"/>
<feOffset dx="0.2" dy="-0.2"/>
<feGaussianBlur stdDeviation="0.2"/>
<feComposite in2="hardAlpha" operator="arithmetic" k2="-1" k3="1"/>
<feColorMatrix type="matrix" values="0 0 0 0 0.223529 0 0 0 0 0.0941176 0 0 0 0 0.313726 0 0 0 1 0"/>
<feBlend mode="normal" in2="shape" result="effect1_innerShadow_254_293"/>
<feColorMatrix in="SourceAlpha" type="matrix" values="0 0 0 0 0 0 0 0 0 0 0 0 0 0 0 0 0 0 127 0" result="hardAlpha"/>
<feOffset dx="0.2" dy="0.2"/>
<feGaussianBlur stdDeviation="0.2"/>
<feComposite in2="hardAlpha" operator="arithmetic" k2="-1" k3="1"/>
<feColorMatrix type="matrix" values="0 0 0 0 0.223529 0 0 0 0 0.0941176 0 0 0 0 0.313726 0 0 0 1 0"/>
<feBlend mode="normal" in2="effect1_innerShadow_254_293" result="effect2_innerShadow_254_293"/>
<feColorMatrix in="SourceAlpha" type="matrix" values="0 0 0 0 0 0 0 0 0 0 0 0 0 0 0 0 0 0 127 0" result="hardAlpha"/>
<feOffset dx="-0.2" dy="0.2"/>
<feGaussianBlur stdDeviation="0.2"/>
<feComposite in2="hardAlpha" operator="arithmetic" k2="-1" k3="1"/>
<feColorMatrix type="matrix" values="0 0 0 0 0.27451 0 0 0 0 0.294118 0 0 0 0 0.470588 0 0 0 1 0"/>
<feBlend mode="normal" in2="effect2_innerShadow_254_293" result="effect3_innerShadow_254_293"/>
</filter>
<filter id="filter10_i_254_293" x="38.5659" y="37.219" width="2.93646" height="2.658" filterUnits="userSpaceOnUse" color-interpolation-filters="sRGB">
<feFlood flood-opacity="0" result="BackgroundImageFix"/>
<feBlend mode="normal" in="SourceGraphic" in2="BackgroundImageFix" result="shape"/>
<feColorMatrix in="SourceAlpha" type="matrix" values="0 0 0 0 0 0 0 0 0 0 0 0 0 0 0 0 0 0 127 0" result="hardAlpha"/>
<feOffset dx="-0.15" dy="0.15"/>
<feGaussianBlur stdDeviation="0.5"/>
<feComposite in2="hardAlpha" operator="arithmetic" k2="-1" k3="1"/>
<feColorMatrix type="matrix" values="0 0 0 0 0.219608 0 0 0 0 0.105882 0 0 0 0 0.290196 0 0 0 1 0"/>
<feBlend mode="normal" in2="shape" result="effect1_innerShadow_254_293"/>
</filter>
<linearGradient id="paint0_linear_254_293" x1="19.8962" y1="18" x2="21.8501" y2="19.3615" gradientUnits="userSpaceOnUse">
<stop stop-color="#CCAE62"/>
<stop offset="1" stop-color="#CCAE62" stop-opacity="0"/>
</linearGradient>
<linearGradient id="paint1_linear_254_293" x1="34.2785" y1="33.505" x2="37.5783" y2="33.505" gradientUnits="userSpaceOnUse">
<stop stop-color="#322A58"/>
<stop offset="1" stop-color="#1E1B3D"/>
</linearGradient>
<linearGradient id="paint2_linear_254_293" x1="15.0188" y1="38.478" x2="22.7993" y2="38.478" gradientUnits="userSpaceOnUse">
<stop stop-color="#421D46"/>
<stop offset="1" stop-color="#2A2453"/>
</linearGradient>
<linearGradient id="paint3_linear_254_293" x1="18.9063" y1="37.469" x2="18.9063" y2="38.844" gradientUnits="userSpaceOnUse">
<stop stop-color="#0C0C32"/>
<stop offset="1" stop-color="#0C0C32" stop-opacity="0"/>
</linearGradient>
<linearGradient id="paint4_linear_254_293" x1="22.506" y1="37.907" x2="21.7031" y2="38.5535" gradientUnits="userSpaceOnUse">
<stop stop-color="#0C0C32"/>
<stop offset="1" stop-color="#0C0C32" stop-opacity="0"/>
</linearGradient>
<linearGradient id="paint5_linear_254_293" x1="19.2085" y1="37.657" x2="19.2085" y2="39.5" gradientUnits="userSpaceOnUse">
<stop stop-color="#655774"/>
<stop offset="1" stop-color="#90799F"/>
</linearGradient>
<radialGradient id="paint6_radial_254_293" cx="0" cy="0" r="1" gradientUnits="userSpaceOnUse" gradientTransform="translate(20.7706 35.095) rotate(180) scale(3.95804 1.9)">
<stop offset="0.238" stop-color="#265A52"/>
<stop offset="1" stop-color="#265A52" stop-opacity="0"/>
</radialGradient>
<linearGradient id="paint7_linear_254_293" x1="21.3083" y1="35.86" x2="20.3626" y2="36.3759" gradientUnits="userSpaceOnUse">
<stop offset="0.153" stop-color="#265A52"/>
<stop offset="1" stop-color="#265A52" stop-opacity="0"/>
</linearGradient>
<radialGradient id="paint8_radial_254_293" cx="0" cy="0" r="1" gradientUnits="userSpaceOnUse" gradientTransform="translate(20.1101 38.0008) rotate(-134.615) scale(5.88266 6.70025)">
<stop offset="0.735" stop-color="#347A60" stop-opacity="0"/>
<stop offset="1" stop-color="#347A60"/>
</radialGradient>
<linearGradient id="paint9_linear_254_293" x1="18.9996" y1="38" x2="18.9996" y2="37.766" gradientUnits="userSpaceOnUse">
<stop stop-color="#395268"/>
<stop offset="1" stop-color="#395268" stop-opacity="0"/>
</linearGradient>
<radialGradient id="paint10_radial_254_293" cx="0" cy="0" r="1" gradientUnits="userSpaceOnUse" gradientTransform="translate(20.6595 34.524) rotate(146.275) scale(1.25234 1.07198)">
<stop offset="0.307" stop-color="#275353"/>
<stop offset="1" stop-color="#275353" stop-opacity="0"/>
</radialGradient>
<linearGradient id="paint11_linear_254_293" x1="37.8805" y1="27.899" x2="37.6688" y2="28.362" gradientUnits="userSpaceOnUse">
<stop stop-color="#3D8F7A"/>
<stop offset="1" stop-color="#3D8F7A" stop-opacity="0"/>
</linearGradient>
<linearGradient id="paint12_linear_254_293" x1="25.0992" y1="24" x2="24.8959" y2="24" gradientUnits="userSpaceOnUse">
<stop offset="0.23" stop-color="#FFDD55"/>
<stop offset="1" stop-color="#FFDD55" stop-opacity="0"/>
</linearGradient>
<linearGradient id="paint13_linear_254_293" x1="27.3323" y1="33.505" x2="30.6654" y2="33.505" gradientUnits="userSpaceOnUse">
<stop stop-color="#382452"/>
<stop offset="1" stop-color="#1F162D"/>
</linearGradient>
<linearGradient id="paint14_linear_254_293" x1="30.6654" y1="28.688" x2="30.841" y2="28.688" gradientUnits="userSpaceOnUse">
<stop stop-color="#306D56"/>
<stop offset="1" stop-color="#306D56" stop-opacity="0"/>
</linearGradient>
<linearGradient id="paint15_linear_254_293" x1="31.7354" y1="29.094" x2="31.5965" y2="29.094" gradientUnits="userSpaceOnUse">
<stop stop-color="#479982"/>
<stop offset="1" stop-color="#479982" stop-opacity="0"/>
</linearGradient>
<linearGradient id="paint16_linear_254_293" x1="36.2206" y1="38.478" x2="44.0022" y2="38.478" gradientUnits="userSpaceOnUse">
<stop stop-color="#421D46"/>
<stop offset="1" stop-color="#2A2453"/>
</linearGradient>
<linearGradient id="paint17_linear_254_293" x1="38.7159" y1="38.478" x2="41.5024" y2="38.478" gradientUnits="userSpaceOnUse">
<stop stop-color="#D8D8D8"/>
<stop offset="1" stop-color="#F2F2F2"/>
</linearGradient>
<linearGradient id="paint18_linear_254_293" x1="20.3018" y1="32.563" x2="20.3018" y2="34.688" gradientUnits="userSpaceOnUse">
<stop stop-color="#5BEA97"/>
<stop offset="1" stop-color="#40A37C"/>
</linearGradient>
<linearGradient id="paint19_linear_254_293" x1="20.3018" y1="35.375" x2="20.3018" y2="34.407" gradientUnits="userSpaceOnUse">
<stop stop-color="#316E65"/>
<stop offset="1" stop-color="#316E65" stop-opacity="0"/>
</linearGradient>
<linearGradient id="paint20_linear_254_293" x1="22.4194" y1="33.688" x2="20.8573" y2="33.688" gradientUnits="userSpaceOnUse">
<stop stop-color="#67FCA3"/>
<stop offset="1" stop-color="#67FCA3" stop-opacity="0"/>
</linearGradient>
<linearGradient id="paint21_linear_254_293" x1="19.4618" y1="23.505" x2="22.1705" y2="23.505" gradientUnits="userSpaceOnUse">
<stop stop-color="#4ED1FD"/>
<stop offset="1" stop-color="#3E9DDD"/>
</linearGradient>
<linearGradient id="paint22_linear_254_293" x1="23.316" y1="24.219" x2="22.0316" y2="24.219" gradientUnits="userSpaceOnUse">
<stop stop-color="#4FB7E7"/>
<stop offset="1" stop-color="#4FB7E7" stop-opacity="0"/>
</linearGradient>
</defs>
</svg>
