<svg width="60" height="60" viewBox="0 0 60 60" fill="none" xmlns="http://www.w3.org/2000/svg">
<circle cx="30" cy="30" r="30" fill="#0D3B66"/>
<path d="M20.5625 17.875H16.8125V44.125H20.5625V17.875Z" fill="url(#paint0_linear_254_294)"/>
<path d="M20.5625 17.875H16.8125V44.125H20.5625V17.875Z" fill="url(#paint1_radial_254_294)"/>
<path d="M20.5625 17.875H16.8125V44.125H20.5625V17.875Z" fill="url(#paint2_radial_254_294)"/>
<g filter="url(#filter0_f_254_294)">
<path d="M18.6875 18.955H19.7066V43.3403H18.6875V18.955Z" fill="url(#paint3_linear_254_294)"/>
</g>
<path d="M20.5625 17.875H16.8125V44.125H20.5625V17.875Z" fill="url(#paint4_radial_254_294)"/>
<path d="M20.5625 17.875H16.8125V44.125H20.5625V17.875Z" fill="url(#paint5_radial_254_294)"/>
<path d="M21.5881 25.375H16.7244C16.6124 25.3751 16.5015 25.3531 16.3981 25.3102C16.2947 25.2672 16.2008 25.2042 16.1218 25.1248C16.0429 25.0455 15.9804 24.9512 15.9381 24.8476C15.8957 24.7439 15.8743 24.6329 15.875 24.5209V22.4781C15.875 22.0047 16.2528 21.625 16.7244 21.625H21.5881C22.0597 21.625 22.4375 22.0047 22.4375 22.4791V24.5106C22.4385 24.6232 22.4173 24.7348 22.3752 24.8391C22.333 24.9435 22.2707 25.0385 22.1918 25.1187C22.113 25.199 22.0191 25.2629 21.9155 25.3069C21.8119 25.3509 21.7007 25.374 21.5881 25.375Z" fill="url(#paint6_linear_254_294)"/>
<path d="M21.5881 25.375H16.7244C16.6124 25.3751 16.5015 25.3531 16.3981 25.3102C16.2947 25.2672 16.2008 25.2042 16.1218 25.1248C16.0429 25.0455 15.9804 24.9512 15.9381 24.8476C15.8957 24.7439 15.8743 24.6329 15.875 24.5209V22.4781C15.875 22.0047 16.2528 21.625 16.7244 21.625H21.5881C22.0597 21.625 22.4375 22.0047 22.4375 22.4791V24.5106C22.4385 24.6232 22.4173 24.7348 22.3752 24.8391C22.333 24.9435 22.2707 25.0385 22.1918 25.1187C22.113 25.199 22.0191 25.2629 21.9155 25.3069C21.8119 25.3509 21.7007 25.374 21.5881 25.375Z" fill="url(#paint7_linear_254_294)"/>
<path d="M21.5881 25.375H16.7244C16.6124 25.3751 16.5015 25.3531 16.3981 25.3102C16.2947 25.2672 16.2008 25.2042 16.1218 25.1248C16.0429 25.0455 15.9804 24.9512 15.9381 24.8476C15.8957 24.7439 15.8743 24.6329 15.875 24.5209V22.4781C15.875 22.0047 16.2528 21.625 16.7244 21.625H21.5881C22.0597 21.625 22.4375 22.0047 22.4375 22.4791V24.5106C22.4385 24.6232 22.4173 24.7348 22.3752 24.8391C22.333 24.9435 22.2707 25.0385 22.1918 25.1187C22.113 25.199 22.0191 25.2629 21.9155 25.3069C21.8119 25.3509 21.7007 25.374 21.5881 25.375Z" fill="url(#paint8_linear_254_294)"/>
<path d="M21.5881 37.5625H16.7244C16.6122 37.5625 16.5011 37.5403 16.3976 37.4971C16.2941 37.454 16.2001 37.3907 16.1211 37.3111C16.0421 37.2314 15.9797 37.1369 15.9375 37.033C15.8953 36.9291 15.874 36.8178 15.875 36.7056V34.6694C15.875 34.1931 16.2528 33.8125 16.7244 33.8125H21.5881C22.0597 33.8125 22.4375 34.1931 22.4375 34.6694V36.7056C22.4378 36.9317 22.3486 37.1486 22.1895 37.3092C22.0303 37.4697 21.8142 37.5608 21.5881 37.5625Z" fill="url(#paint9_linear_254_294)"/>
<path d="M21.5881 37.5625H16.7244C16.6122 37.5625 16.5011 37.5403 16.3976 37.4971C16.2941 37.454 16.2001 37.3907 16.1211 37.3111C16.0421 37.2314 15.9797 37.1369 15.9375 37.033C15.8953 36.9291 15.874 36.8178 15.875 36.7056V34.6694C15.875 34.1931 16.2528 33.8125 16.7244 33.8125H21.5881C22.0597 33.8125 22.4375 34.1931 22.4375 34.6694V36.7056C22.4378 36.9317 22.3486 37.1486 22.1895 37.3092C22.0303 37.4697 21.8142 37.5608 21.5881 37.5625Z" fill="url(#paint10_linear_254_294)"/>
<path d="M21.5881 37.5625H16.7244C16.6122 37.5625 16.5011 37.5403 16.3976 37.4971C16.2941 37.454 16.2001 37.3907 16.1211 37.3111C16.0421 37.2314 15.9797 37.1369 15.9375 37.033C15.8953 36.9291 15.874 36.8178 15.875 36.7056V34.6694C15.875 34.1931 16.2528 33.8125 16.7244 33.8125H21.5881C22.0597 33.8125 22.4375 34.1931 22.4375 34.6694V36.7056C22.4378 36.9317 22.3486 37.1486 22.1895 37.3092C22.0303 37.4697 21.8142 37.5608 21.5881 37.5625Z" fill="url(#paint11_linear_254_294)"/>
<g filter="url(#filter1_ii_254_294)">
<path d="M23.6141 39.4375H39.0734C39.634 39.437 40.1714 39.2141 40.5678 38.8178C40.9641 38.4214 41.187 37.884 41.1875 37.3234V21.8641C41.187 21.3035 40.9641 20.7661 40.5678 20.3697C40.1714 19.9734 39.634 19.7505 39.0734 19.75H23.6141C23.0535 19.7505 22.5161 19.9734 22.1197 20.3697C21.7234 20.7661 21.5005 21.3035 21.5 21.8641V37.3234C21.5005 37.884 21.7234 38.4214 22.1197 38.8178C22.5161 39.2141 23.0535 39.437 23.6141 39.4375Z" fill="url(#paint12_linear_254_294)"/>
</g>
<path d="M23.6141 39.4375H39.0734C39.634 39.437 40.1714 39.2141 40.5678 38.8178C40.9641 38.4214 41.187 37.884 41.1875 37.3234V21.8641C41.187 21.3035 40.9641 20.7661 40.5678 20.3697C40.1714 19.9734 39.634 19.7505 39.0734 19.75H23.6141C23.0535 19.7505 22.5161 19.9734 22.1197 20.3697C21.7234 20.7661 21.5005 21.3035 21.5 21.8641V37.3234C21.5005 37.884 21.7234 38.4214 22.1197 38.8178C22.5161 39.2141 23.0535 39.437 23.6141 39.4375Z" fill="url(#paint13_linear_254_294)"/>
<path d="M23.6141 39.4375H39.0734C39.634 39.437 40.1714 39.2141 40.5678 38.8178C40.9641 38.4214 41.187 37.884 41.1875 37.3234V21.8641C41.187 21.3035 40.9641 20.7661 40.5678 20.3697C40.1714 19.9734 39.634 19.7505 39.0734 19.75H23.6141C23.0535 19.7505 22.5161 19.9734 22.1197 20.3697C21.7234 20.7661 21.5005 21.3035 21.5 21.8641V37.3234C21.5005 37.884 21.7234 38.4214 22.1197 38.8178C22.5161 39.2141 23.0535 39.437 23.6141 39.4375Z" fill="url(#paint14_radial_254_294)"/>
<path d="M36.005 31.9328H35.0319C34.773 31.9328 34.5631 32.1427 34.5631 32.4016V35.2188C34.5631 35.4776 34.773 35.6875 35.0319 35.6875H36.005C36.2639 35.6875 36.4738 35.4776 36.4738 35.2188V32.4016C36.4738 32.1427 36.2639 31.9328 36.005 31.9328Z" fill="url(#paint15_linear_254_294)"/>
<path d="M27.6547 31.9328H26.6816C26.4227 31.9328 26.2128 32.1427 26.2128 32.4016V35.2188C26.2128 35.4776 26.4227 35.6875 26.6816 35.6875H27.6547C27.9136 35.6875 28.1234 35.4776 28.1234 35.2188V32.4016C28.1234 32.1427 27.9136 31.9328 27.6547 31.9328Z" fill="url(#paint16_linear_254_294)"/>
<path d="M36.2159 28.2784H37.2959V29.1859H36.2159V28.2784Z" fill="url(#paint17_linear_254_294)"/>
<path d="M25.6738 28.2784H26.7538V29.1859H25.6738V28.2784Z" fill="url(#paint18_linear_254_294)"/>
<path d="M26.2128 25.1406C26.2128 24.7428 26.3708 24.3613 26.6522 24.08C26.9335 23.7987 27.315 23.6406 27.7128 23.6406H34.9738C35.1707 23.6406 35.3658 23.6794 35.5478 23.7548C35.7298 23.8302 35.8951 23.9407 36.0344 24.08C36.1737 24.2193 36.2842 24.3846 36.3596 24.5666C36.435 24.7486 36.4738 24.9436 36.4738 25.1406V33.5716C36.4738 33.6701 36.4544 33.7676 36.4167 33.8586C36.379 33.9496 36.3237 34.0322 36.2541 34.1019C36.1844 34.1715 36.1018 34.2268 36.0108 34.2645C35.9198 34.3022 35.8222 34.3216 35.7238 34.3216H26.9628C26.8643 34.3216 26.7668 34.3022 26.6758 34.2645C26.5848 34.2268 26.5021 34.1715 26.4325 34.1019C26.3628 34.0322 26.3076 33.9496 26.2699 33.8586C26.2322 33.7676 26.2128 33.6701 26.2128 33.5716V25.1397V25.1406Z" fill="url(#paint19_linear_254_294)"/>
<path d="M37.5584 27.3466H37.1994C37.044 27.3466 36.9181 27.4725 36.9181 27.6278V29.3772C36.9181 29.5325 37.044 29.6584 37.1994 29.6584H37.5584C37.7138 29.6584 37.8397 29.5325 37.8397 29.3772V27.6278C37.8397 27.4725 37.7138 27.3466 37.5584 27.3466Z" fill="url(#paint20_linear_254_294)"/>
<path opacity="0.55" d="M25.4872 27.3466H25.1281C24.9728 27.3466 24.8469 27.4725 24.8469 27.6278V29.3772C24.8469 29.5325 24.9728 29.6584 25.1281 29.6584H25.4872C25.6425 29.6584 25.7684 29.5325 25.7684 29.3772V27.6278C25.7684 27.4725 25.6425 27.3466 25.4872 27.3466Z" fill="#C86464" fill-opacity="0.5"/>
<path d="M25.4872 27.3466H25.1281C24.9728 27.3466 24.8469 27.4725 24.8469 27.6278V29.3772C24.8469 29.5325 24.9728 29.6584 25.1281 29.6584H25.4872C25.6425 29.6584 25.7684 29.5325 25.7684 29.3772V27.6278C25.7684 27.4725 25.6425 27.3466 25.4872 27.3466Z" fill="url(#paint21_linear_254_294)"/>
<path d="M36.4747 30.9709V33.5716C36.4747 33.6701 36.4553 33.7676 36.4176 33.8586C36.3799 33.9496 36.3247 34.0322 36.255 34.1019C36.1854 34.1715 36.1027 34.2268 36.0117 34.2645C35.9207 34.3022 35.8232 34.3216 35.7247 34.3216H26.9637C26.8653 34.3216 26.7677 34.3022 26.6767 34.2645C26.5857 34.2268 26.5031 34.1715 26.4334 34.1019C26.3638 34.0322 26.3085 33.9496 26.2708 33.8586C26.2331 33.7676 26.2137 33.6701 26.2137 33.5716V30.9709H36.4737H36.4747Z" fill="url(#paint22_linear_254_294)"/>
<path d="M35.0506 25.0159H27.6378C27.3789 25.0159 27.1691 25.2258 27.1691 25.4847V30.1272C27.1691 30.3861 27.3789 30.5959 27.6378 30.5959H35.0506C35.3095 30.5959 35.5194 30.3861 35.5194 30.1272V25.4847C35.5194 25.2258 35.3095 25.0159 35.0506 25.0159Z" fill="url(#paint23_linear_254_294)"/>
<path d="M35.5184 26.4109H27.1691V25.4847C27.1691 25.3604 27.2185 25.2411 27.3064 25.1532C27.3943 25.0653 27.5135 25.0159 27.6378 25.0159H35.0497C35.174 25.0159 35.2932 25.0653 35.3811 25.1532C35.4691 25.2411 35.5184 25.3604 35.5184 25.4847V26.4109Z" fill="url(#paint24_linear_254_294)"/>
<path d="M33.9041 31.5128H28.8125C28.6805 31.5128 28.5734 31.6198 28.5734 31.7519C28.5734 31.8839 28.6805 31.9909 28.8125 31.9909H33.9041C34.0361 31.9909 34.1431 31.8839 34.1431 31.7519C34.1431 31.6198 34.0361 31.5128 33.9041 31.5128Z" fill="url(#paint25_linear_254_294)"/>
<path d="M32.9581 32.4484H29.7294C29.5973 32.4484 29.4903 32.5555 29.4903 32.6875C29.4903 32.8195 29.5973 32.9266 29.7294 32.9266H32.9581C33.0902 32.9266 33.1972 32.8195 33.1972 32.6875C33.1972 32.5555 33.0902 32.4484 32.9581 32.4484Z" fill="url(#paint26_linear_254_294)"/>
<path d="M26.2128 33.3756V31.5128H27.1588C27.2831 31.5128 27.4023 31.5622 27.4902 31.6501C27.5781 31.738 27.6275 31.8572 27.6275 31.9816V32.9069C27.6275 33.0312 27.5781 33.1504 27.4902 33.2383C27.4023 33.3262 27.2831 33.3756 27.1588 33.3756H26.2138H26.2128Z" fill="url(#paint27_linear_254_294)"/>
<path d="M36.4747 33.3756V31.5128H35.5288C35.4044 31.5128 35.2852 31.5622 35.1973 31.6501C35.1094 31.738 35.06 31.8572 35.06 31.9816V32.9069C35.06 33.0312 35.1094 33.1504 35.1973 33.2383C35.2852 33.3262 35.4044 33.3756 35.5288 33.3756H36.4747Z" fill="url(#paint28_linear_254_294)"/>
<defs>
<filter id="filter0_f_254_294" x="17.1875" y="17.455" width="4.01906" height="27.3853" filterUnits="userSpaceOnUse" color-interpolation-filters="sRGB">
<feFlood flood-opacity="0" result="BackgroundImageFix"/>
<feBlend mode="normal" in="SourceGraphic" in2="BackgroundImageFix" result="shape"/>
<feGaussianBlur stdDeviation="0.75" result="effect1_foregroundBlur_254_294"/>
</filter>
<filter id="filter1_ii_254_294" x="20.25" y="18.5" width="22.1875" height="22.1875" filterUnits="userSpaceOnUse" color-interpolation-filters="sRGB">
<feFlood flood-opacity="0" result="BackgroundImageFix"/>
<feBlend mode="normal" in="SourceGraphic" in2="BackgroundImageFix" result="shape"/>
<feColorMatrix in="SourceAlpha" type="matrix" values="0 0 0 0 0 0 0 0 0 0 0 0 0 0 0 0 0 0 127 0" result="hardAlpha"/>
<feOffset dx="-1.25" dy="1.25"/>
<feGaussianBlur stdDeviation="0.625"/>
<feComposite in2="hardAlpha" operator="arithmetic" k2="-1" k3="1"/>
<feColorMatrix type="matrix" values="0 0 0 0 0.262745 0 0 0 0 0.65098 0 0 0 0 0.952941 0 0 0 1 0"/>
<feBlend mode="normal" in2="shape" result="effect1_innerShadow_254_294"/>
<feColorMatrix in="SourceAlpha" type="matrix" values="0 0 0 0 0 0 0 0 0 0 0 0 0 0 0 0 0 0 127 0" result="hardAlpha"/>
<feOffset dx="1.25" dy="-1.25"/>
<feGaussianBlur stdDeviation="0.625"/>
<feComposite in2="hardAlpha" operator="arithmetic" k2="-1" k3="1"/>
<feColorMatrix type="matrix" values="0 0 0 0 0.160784 0 0 0 0 0.32549 0 0 0 0 0.572549 0 0 0 1 0"/>
<feBlend mode="normal" in2="effect1_innerShadow_254_294" result="effect2_innerShadow_254_294"/>
</filter>
<linearGradient id="paint0_linear_254_294" x1="16.8153" y1="31.0037" x2="19.7066" y2="31.0037" gradientUnits="userSpaceOnUse">
<stop stop-color="#625F69"/>
<stop offset="1" stop-color="#8D8BA1"/>
</linearGradient>
<radialGradient id="paint1_radial_254_294" cx="0" cy="0" r="1" gradientUnits="userSpaceOnUse" gradientTransform="translate(21.2862 17.875) rotate(104.295) scale(4.72943 3.341)">
<stop stop-color="#CBC9D2"/>
<stop offset="1" stop-color="#CBC9D2" stop-opacity="0"/>
</radialGradient>
<radialGradient id="paint2_radial_254_294" cx="0" cy="0" r="1" gradientUnits="userSpaceOnUse" gradientTransform="translate(23.4847 46.5691) rotate(-116.565) scale(9.67679 5.82014)">
<stop stop-color="#AEA1BE"/>
<stop offset="1" stop-color="#AEA1BE" stop-opacity="0"/>
</radialGradient>
<linearGradient id="paint3_linear_254_294" x1="19.1966" y1="18.955" x2="19.1966" y2="43.3403" gradientUnits="userSpaceOnUse">
<stop stop-color="#C1BEC8"/>
<stop offset="1" stop-color="#C1BEC8" stop-opacity="0"/>
</linearGradient>
<radialGradient id="paint4_radial_254_294" cx="0" cy="0" r="1" gradientUnits="userSpaceOnUse" gradientTransform="translate(18.6875 24.4956) rotate(90) scale(1.81448 3.59945)">
<stop offset="0.329" stop-color="#645775"/>
<stop offset="1" stop-color="#645775" stop-opacity="0"/>
</radialGradient>
<radialGradient id="paint5_radial_254_294" cx="0" cy="0" r="1" gradientUnits="userSpaceOnUse" gradientTransform="translate(18.6875 36.3934) rotate(90) scale(2.52651 5.01189)">
<stop offset="0.329" stop-color="#645775"/>
<stop offset="1" stop-color="#645775" stop-opacity="0"/>
</radialGradient>
<linearGradient id="paint6_linear_254_294" x1="15.8694" y1="23.4991" x2="20.5391" y2="23.4991" gradientUnits="userSpaceOnUse">
<stop stop-color="#5B5763"/>
<stop offset="1" stop-color="#B0A8BB"/>
</linearGradient>
<linearGradient id="paint7_linear_254_294" x1="19.1563" y1="21.625" x2="19.1563" y2="22.2625" gradientUnits="userSpaceOnUse">
<stop stop-color="#8A8C96"/>
<stop offset="1" stop-color="#8A8C96" stop-opacity="0"/>
</linearGradient>
<linearGradient id="paint8_linear_254_294" x1="19.8622" y1="25.8597" x2="19.8622" y2="24.475" gradientUnits="userSpaceOnUse">
<stop stop-color="#625275"/>
<stop offset="1" stop-color="#625275" stop-opacity="0"/>
</linearGradient>
<linearGradient id="paint9_linear_254_294" x1="15.8694" y1="35.6866" x2="20.5391" y2="35.6866" gradientUnits="userSpaceOnUse">
<stop stop-color="#5B5763"/>
<stop offset="1" stop-color="#B0A8BB"/>
</linearGradient>
<linearGradient id="paint10_linear_254_294" x1="19.1563" y1="33.8125" x2="19.1563" y2="34.45" gradientUnits="userSpaceOnUse">
<stop stop-color="#8A8C96"/>
<stop offset="1" stop-color="#8A8C96" stop-opacity="0"/>
</linearGradient>
<linearGradient id="paint11_linear_254_294" x1="19.8622" y1="38.0472" x2="19.8622" y2="36.6625" gradientUnits="userSpaceOnUse">
<stop stop-color="#625275"/>
<stop offset="1" stop-color="#625275" stop-opacity="0"/>
</linearGradient>
<linearGradient id="paint12_linear_254_294" x1="24.6059" y1="37.9731" x2="39.8403" y2="21.3906" gradientUnits="userSpaceOnUse">
<stop stop-color="#3C7BD2"/>
<stop offset="1" stop-color="#3893E1"/>
</linearGradient>
<linearGradient id="paint13_linear_254_294" x1="31.3438" y1="40.0825" x2="31.3438" y2="37.6797" gradientUnits="userSpaceOnUse">
<stop stop-color="#3054C2"/>
<stop offset="1" stop-color="#3054C2" stop-opacity="0"/>
</linearGradient>
<radialGradient id="paint14_radial_254_294" cx="0" cy="0" r="1" gradientUnits="userSpaceOnUse" gradientTransform="translate(40.9817 20.1607) rotate(130.192) scale(2.22444 1.8548)">
<stop offset="0.141" stop-color="#52BBFF"/>
<stop offset="1" stop-color="#52BBFF" stop-opacity="0"/>
</radialGradient>
<linearGradient id="paint15_linear_254_294" x1="34.5631" y1="34.8766" x2="36.4747" y2="34.8766" gradientUnits="userSpaceOnUse">
<stop stop-color="#5C4373"/>
<stop offset="1" stop-color="#3F3944"/>
</linearGradient>
<linearGradient id="paint16_linear_254_294" x1="26.2128" y1="34.8766" x2="28.1244" y2="34.8766" gradientUnits="userSpaceOnUse">
<stop stop-color="#5C4373"/>
<stop offset="1" stop-color="#3F3944"/>
</linearGradient>
<linearGradient id="paint17_linear_254_294" x1="36.4681" y1="28.6337" x2="36.9116" y2="28.6337" gradientUnits="userSpaceOnUse">
<stop stop-color="#3D3740"/>
<stop offset="1" stop-color="#453A4E"/>
</linearGradient>
<linearGradient id="paint18_linear_254_294" x1="25.7553" y1="28.6337" x2="26.1359" y2="28.6337" gradientUnits="userSpaceOnUse">
<stop stop-color="#3D3740"/>
<stop offset="1" stop-color="#453A4E"/>
</linearGradient>
<linearGradient id="paint19_linear_254_294" x1="26.9234" y1="23.6397" x2="37.3231" y2="32.7822" gradientUnits="userSpaceOnUse">
<stop stop-color="#D1C4D9"/>
<stop offset="1" stop-color="#DDCDE7"/>
</linearGradient>
<linearGradient id="paint20_linear_254_294" x1="36.9828" y1="28.2531" x2="37.8406" y2="28.2531" gradientUnits="userSpaceOnUse">
<stop stop-color="#3F3742"/>
<stop offset="1" stop-color="#543F68"/>
</linearGradient>
<linearGradient id="paint21_linear_254_294" x1="24.9116" y1="28.2531" x2="25.7694" y2="28.2531" gradientUnits="userSpaceOnUse">
<stop stop-color="#3F3742"/>
<stop offset="1" stop-color="#543F68"/>
</linearGradient>
<linearGradient id="paint22_linear_254_294" x1="27.3134" y1="30.9709" x2="34.0081" y2="34.57" gradientUnits="userSpaceOnUse">
<stop stop-color="#EEB742"/>
<stop offset="1" stop-color="#E2A53E"/>
</linearGradient>
<linearGradient id="paint23_linear_254_294" x1="27.1691" y1="27.4666" x2="35.5184" y2="27.4666" gradientUnits="userSpaceOnUse">
<stop stop-color="#389BEC"/>
<stop offset="1" stop-color="#57D4F4"/>
</linearGradient>
<linearGradient id="paint24_linear_254_294" x1="27.1691" y1="25.7134" x2="35.5184" y2="25.7134" gradientUnits="userSpaceOnUse">
<stop stop-color="#403B44"/>
<stop offset="1" stop-color="#5A436E"/>
</linearGradient>
<linearGradient id="paint25_linear_254_294" x1="28.5734" y1="31.7509" x2="34.1431" y2="31.7509" gradientUnits="userSpaceOnUse">
<stop stop-color="#5B5360"/>
<stop offset="1" stop-color="#68606D"/>
</linearGradient>
<linearGradient id="paint26_linear_254_294" x1="29.4903" y1="32.6875" x2="33.1972" y2="32.6875" gradientUnits="userSpaceOnUse">
<stop stop-color="#5B5360"/>
<stop offset="1" stop-color="#68606D"/>
</linearGradient>
<linearGradient id="paint27_linear_254_294" x1="26.2128" y1="32.7484" x2="27.4653" y2="32.7484" gradientUnits="userSpaceOnUse">
<stop stop-color="#C7B8D1"/>
<stop offset="1" stop-color="#DECEE6"/>
</linearGradient>
<linearGradient id="paint28_linear_254_294" x1="35.06" y1="32.4438" x2="36.7747" y2="32.4438" gradientUnits="userSpaceOnUse">
<stop stop-color="#C7B8D1"/>
<stop offset="1" stop-color="#DECEE6"/>
</linearGradient>
</defs>
</svg>
