<svg width="60" height="60" viewBox="0 0 60 60" fill="none" xmlns="http://www.w3.org/2000/svg">
<g filter="url(#filter0_i_209_141)">
<circle cx="30" cy="30" r="30" fill="#0D3B66"/>
</g>
<path d="M30 43.3125C37.7665 43.3125 44.0625 37.0165 44.0625 29.25C44.0625 21.4835 37.7665 15.1875 30 15.1875C22.2335 15.1875 15.9375 21.4835 15.9375 29.25C15.9375 37.0165 22.2335 43.3125 30 43.3125Z" fill="#455A64"/>
<path d="M23.0578 30.1898C27.1523 27.7477 33.6023 28.2492 36.8906 29.9273C38.4117 30.7031 39.1547 31.5422 41.0437 32.543C42.6469 33.3938 42.8742 32.707 42.9727 32.3789C43.2984 31.2305 43.2375 30.5016 43.2375 29.2477C43.2398 21.9375 37.3125 15.6023 30 15.6023C22.6875 15.6023 16.7602 21.9375 16.7602 29.25C16.7602 30.2602 16.7602 30.6188 16.9734 31.5633C17.5969 33.6563 21.0305 31.3992 23.0578 30.1898Z" fill="black"/>
<path d="M39.3867 39.6937L36.1828 35.8898L34.2305 35.7797L36.8789 41.5148C36.8789 41.5148 37.2281 41.2969 38.1539 40.6969C39.082 40.0992 39.3867 39.6937 39.3867 39.6937Z" fill="#82AEC0"/>
<path d="M34.8633 35.3883L38.3625 40.5563C38.3625 40.5563 37.7461 41.0039 37.5492 41.1117C37.3523 41.2219 36.8742 41.5195 36.8742 41.5195L34.2305 35.782L34.8633 35.3883Z" fill="#263238"/>
<path d="M20.6156 39.6937L23.8195 35.8898L25.7719 35.7797L23.1234 41.5148C23.1234 41.5148 22.7742 41.2969 21.8484 40.6969C20.9203 40.0992 20.6156 39.6937 20.6156 39.6937Z" fill="#82AEC0"/>
<path d="M25.1391 35.3883L21.6398 40.5563C21.6398 40.5563 22.2562 41.0039 22.4531 41.1117C22.65 41.2219 23.1281 41.5195 23.1281 41.5195L25.7719 35.7797L25.1391 35.3883Z" fill="#263238"/>
<path d="M22.5422 35.9508C22.5562 36.4781 22.6078 37.0523 22.7273 37.6078C22.7648 37.7836 22.8656 37.9664 23.0344 37.9664H23.4914C23.6625 37.9664 23.8336 37.8773 24.1148 38.4633C24.1922 38.6273 24.2953 38.7281 24.3984 38.7797V38.7867C28.2516 40.1461 33.5109 39.5508 35.4258 38.8102C35.5828 38.8664 35.8336 38.7914 35.9883 38.4633C36.2695 37.875 36.443 37.9664 36.6117 37.9664H37.0688C37.2375 37.9664 37.3383 37.7836 37.3758 37.6078C37.4953 37.0523 37.5469 36.4758 37.5609 35.9508H22.5422Z" fill="black"/>
<path d="M37.8797 36.0937H22.1203C21.9842 36.0937 21.8536 36.0397 21.7574 35.9434C21.6611 35.8472 21.607 35.7166 21.607 35.5805V33.0492H38.3883V35.5805C38.3906 35.8641 38.1609 36.0937 37.8797 36.0937Z" fill="#82AEC0"/>
<path d="M38.3953 33.5273H21.607V34.2305H27.6258V35.4398H32.2125V34.2305H38.3953V33.5273Z" fill="#37474F"/>
<path d="M38.2406 33.6H21.7594C21.5602 33.6 21.3961 33.4453 21.3961 33.2531V24.3117C21.3961 21.0023 22.6594 17.993 28.8797 17.993H31.2914C36.757 17.993 38.6016 21.0023 38.6016 24.3117V33.2531C38.6016 33.4453 38.4398 33.6 38.2406 33.6Z" fill="#F44336"/>
<path d="M21.4031 23.9578C21.4031 25.1695 22.5164 25.432 22.5164 25.432L26.8148 25.4203L28.8187 25.418H29.2711L30.157 25.4156L32.0719 25.4109L37.4977 25.3992C37.4977 25.3992 38.5969 25.05 38.5969 23.9578C38.5969 22.8656 38.2828 17.9227 31.2937 17.9906H28.8797C21.4055 17.8969 21.4031 22.7461 21.4031 23.9578Z" fill="#82AEC0"/>
<path d="M31.6547 32.8828H28.3453C28.1309 32.8828 27.9252 32.7976 27.7736 32.646C27.6219 32.4943 27.5367 32.2887 27.5367 32.0742V23.3836C27.5367 22.9383 27.8977 22.575 28.3453 22.575H31.657C32.1023 22.575 32.4656 22.9359 32.4656 23.3836V32.0742C32.4651 32.2889 32.3794 32.4946 32.2273 32.6462C32.0753 32.7978 31.8694 32.8829 31.6547 32.8828Z" fill="#F44336" stroke="#9B1313" stroke-width="2" stroke-miterlimit="10"/>
<path d="M26.4469 19.6758C26.7539 19.6758 26.8711 19.8562 26.8711 20.0812V28.8047C26.8711 29.0297 26.6812 29.2102 26.4469 29.2102H22.9617C22.7273 29.2102 22.5375 29.0297 22.5375 28.8047V24.3305C22.5375 20.1609 25.6992 19.6758 26.4469 19.6758ZM31.193 23.2875H28.807C28.4625 23.2875 28.1836 23.5664 28.1836 23.9109V28.6125C28.1836 28.957 28.4625 29.2359 28.807 29.2359H31.1906C31.5352 29.2359 31.8141 28.957 31.8141 28.6125V23.9109C31.8141 23.5664 31.5352 23.2875 31.193 23.2875Z" fill="#BAE2FD"/>
<path d="M26.4469 19.6758C26.7539 19.6758 26.8711 19.8562 26.8711 20.0812V28.8047C26.8711 29.0297 26.6812 29.2102 26.4469 29.2102H22.9617C22.7273 29.2102 22.5375 29.0297 22.5375 28.8047V24.3305C22.5375 20.1609 25.6992 19.6758 26.4469 19.6758ZM31.193 23.2875H28.807C28.4625 23.2875 28.1836 23.5664 28.1836 23.9109V28.6125C28.1836 28.957 28.4625 29.2359 28.807 29.2359H31.1906C31.5352 29.2359 31.8141 28.957 31.8141 28.6125V23.9109C31.8141 23.5664 31.5352 23.2875 31.193 23.2875Z" fill="#37474F"/>
<path d="M31.793 21.5555H28.207C27.8461 21.5555 27.5531 21.2625 27.5531 20.9016V20.2242C27.5531 19.8633 27.8461 19.5703 28.207 19.5703H31.793C32.1539 19.5703 32.4469 19.8633 32.4469 20.2242V20.9016C32.4469 21.2648 32.1539 21.5555 31.793 21.5555Z" fill="black"/>
<path d="M28.1086 20.0977H28.8117V21.0305H28.1086V20.0977ZM31.1883 20.0977H31.8914V21.0305H31.1883V20.0977ZM29.1867 20.0977H29.6508V21.0305H29.1867V20.0977ZM30.518 20.0977H30.8437V21.0305H30.518V20.0977Z" fill="#FFEB3B"/>
<path d="M26.1961 20.3695C26.4492 20.3695 26.5453 20.5195 26.5453 20.7047V28.2492C26.5453 28.4344 26.3883 28.5844 26.1961 28.5844H23.407C23.2148 28.5844 23.0578 28.4344 23.0578 28.2492V24.3656C23.0578 20.9297 25.5797 20.3695 26.1961 20.3695ZM31.0055 23.843H29.0602C28.8023 23.843 28.5914 24.0539 28.5914 24.3117V28.1977C28.5914 28.4555 28.8023 28.6664 29.0602 28.6664H31.0055C31.2633 28.6664 31.4742 28.4555 31.4742 28.1977V24.3117C31.4742 24.0539 31.2633 23.843 31.0055 23.843Z" fill="#BAE2FD"/>
<path d="M23.6016 32.4117C24.2151 32.4117 24.7125 31.9143 24.7125 31.3008C24.7125 30.6872 24.2151 30.1898 23.6016 30.1898C22.988 30.1898 22.4906 30.6872 22.4906 31.3008C22.4906 31.9143 22.988 32.4117 23.6016 32.4117Z" fill="#FFFF8D"/>
<path d="M36.4055 32.4117C37.019 32.4117 37.5164 31.9143 37.5164 31.3008C37.5164 30.6872 37.019 30.1898 36.4055 30.1898C35.7919 30.1898 35.2945 30.6872 35.2945 31.3008C35.2945 31.9143 35.7919 32.4117 36.4055 32.4117Z" fill="#FFFF8D"/>
<path d="M33.6984 19.6758C33.3914 19.6758 33.2742 19.8562 33.2742 20.0812V28.8047C33.2742 29.0297 33.4641 29.2102 33.6984 29.2102H37.1836C37.418 29.2102 37.6078 29.0297 37.6078 28.8047V24.3305C37.6102 20.1609 34.4484 19.6758 33.6984 19.6758Z" fill="#37474F"/>
<path d="M33.9516 20.3695C33.6984 20.3695 33.6023 20.5195 33.6023 20.7047V28.2492C33.6023 28.4344 33.7594 28.5844 33.9516 28.5844H36.7406C36.9328 28.5844 37.0898 28.4344 37.0898 28.2492V24.3656C37.0898 20.9297 34.568 20.3695 33.9516 20.3695Z" fill="#BAE2FD"/>
<path d="M23.0695 23.9555L26.5453 27.4313V25.7766L23.3437 22.575C23.3437 22.575 23.2242 22.8633 23.1445 23.2547C23.0812 23.5547 23.0695 23.9555 23.0695 23.9555ZM33.6 23.9438L37.0898 27.4313V25.7766L33.6023 22.2891L33.6 23.9438ZM28.5914 24.2789L31.4742 27.1617V25.507L29.7445 23.843H29.025C28.7859 23.843 28.5914 24.0375 28.5914 24.2789Z" fill="white"/>
<path d="M25.6383 38.3672L25.9523 37.7906C26.0227 37.6617 26.1586 37.5797 26.3063 37.5797H33.3445C33.4945 37.5797 33.6328 37.6641 33.7008 37.7953L34.0078 38.3836C34.0233 38.4139 34.0308 38.4476 34.0296 38.4816C34.0284 38.5156 34.0185 38.5488 34.0009 38.5779C33.9833 38.607 33.9585 38.6311 33.929 38.648C33.8994 38.6649 33.8661 38.6739 33.832 38.6742L25.8117 38.6602C25.7774 38.6601 25.7437 38.6511 25.7138 38.6341C25.684 38.617 25.6592 38.5925 25.6417 38.563C25.6242 38.5335 25.6147 38.4999 25.6141 38.4655C25.6135 38.4312 25.6218 38.3973 25.6383 38.3672Z" fill="#424242"/>
<path d="M35.4117 41.4867L24.5977 41.3672C24.382 41.3648 24.2461 41.1656 24.3445 41.0016L24.75 40.3289C24.8367 40.1859 25.0055 40.0969 25.1906 40.0969H34.8469C35.0461 40.0969 35.2266 40.2 35.3039 40.3594L35.6812 41.1375C35.7633 41.3063 35.6203 41.4891 35.4117 41.4867Z" fill="#82AEC0"/>
<defs>
<filter id="filter0_i_209_141" x="0" y="0" width="60" height="64" filterUnits="userSpaceOnUse" color-interpolation-filters="sRGB">
<feFlood flood-opacity="0" result="BackgroundImageFix"/>
<feBlend mode="normal" in="SourceGraphic" in2="BackgroundImageFix" result="shape"/>
<feColorMatrix in="SourceAlpha" type="matrix" values="0 0 0 0 0 0 0 0 0 0 0 0 0 0 0 0 0 0 127 0" result="hardAlpha"/>
<feOffset dy="4"/>
<feGaussianBlur stdDeviation="2"/>
<feComposite in2="hardAlpha" operator="arithmetic" k2="-1" k3="1"/>
<feColorMatrix type="matrix" values="0 0 0 0 0 0 0 0 0 0 0 0 0 0 0 0 0 0 0.25 0"/>
<feBlend mode="normal" in2="shape" result="effect1_innerShadow_209_141"/>
</filter>
</defs>
</svg>
