<svg width="60" height="60" viewBox="0 0 60 60" fill="none" xmlns="http://www.w3.org/2000/svg">
<g filter="url(#filter0_i_214_150)">
<circle cx="30" cy="30" r="30" fill="#0D3B66"/>
</g>
<g clip-path="url(#clip0_214_150)">
<path d="M22.6875 36.9219L18.6562 43.0625H20.8125L24.75 36.9219H22.6875Z" fill="#94989B"/>
<path d="M22.6875 36.9219H20.625L15.9375 43.0625H18.6562L22.6875 36.9219Z" fill="#E6E6E6"/>
<path d="M37.3125 36.9219H35.25L39.1875 43.0625H41.3438L37.3125 36.9219Z" fill="#94989B"/>
<path d="M37.3125 36.9219L41.3438 43.0625H44.0625L39.375 36.9219H37.3125Z" fill="#E6E6E6"/>
<path d="M35.625 37.4844H24.375L20.8125 43.0625H39.1875L35.625 37.4844Z" fill="#3E4347"/>
<path d="M39.5625 29.0938H20.4375V17.9375C20.4375 17.6562 25.2188 16.3438 30 16.3438C34.7812 16.3438 39.5625 17.6562 39.5625 17.9375V29.0938Z" fill="#BA573F"/>
<path d="M40.6875 36.7344C40.6875 38.4687 19.3594 38.4687 19.3594 36.7344V33.875H40.6875V36.7344Z" fill="#C5CDD3"/>
<path d="M37.5 38.7031C37.5 40.8125 22.5 40.8125 22.5 38.7031V35.1875H37.5V38.7031Z" fill="#DAE3EA"/>
<path d="M40.6875 33.875H19.3125V19.8125C19.3125 19.4375 24.6562 17.7969 30 17.7969C35.3438 17.7969 40.6875 19.4375 40.6875 19.8125V33.875Z" fill="#F14E3A"/>
<path d="M20.4375 20.4219V24.875L29.4844 23.375V18.9219C29.3906 18.5469 20.3906 20.0469 20.4375 20.4219ZM30.5156 18.9219V23.375L39.5156 24.8281V20.375C39.6094 20.0469 30.6094 18.5469 30.5156 18.9219Z" fill="#3E4347"/>
<path d="M32.7656 33.875H27.2344V24.8281C27.2344 23.6562 32.7188 23.6562 32.7188 24.8281C32.7656 26.2344 32.7656 33.875 32.7656 33.875Z" fill="#FDF516"/>
<path d="M30 28.3438C30.8802 28.3438 31.5938 27.6512 31.5938 26.7969C31.5938 25.9426 30.8802 25.25 30 25.25C29.1198 25.25 28.4062 25.9426 28.4062 26.7969C28.4062 27.6512 29.1198 28.3438 30 28.3438Z" fill="#3E4347"/>
<path d="M25.2656 17.8438C26.0941 17.8438 26.7656 17.1932 26.7656 16.3906C26.7656 15.5881 26.0941 14.9375 25.2656 14.9375C24.4372 14.9375 23.7656 15.5881 23.7656 16.3906C23.7656 17.1932 24.4372 17.8438 25.2656 17.8438Z" fill="#F14E3A"/>
<path d="M34.7344 17.8438C35.5628 17.8438 36.2344 17.1932 36.2344 16.3906C36.2344 15.5881 35.5628 14.9375 34.7344 14.9375C33.9059 14.9375 33.2344 15.5881 33.2344 16.3906C33.2344 17.1932 33.9059 17.8438 34.7344 17.8438Z" fill="#F14E3A"/>
<path d="M34.8281 29.75C32.4844 29.2344 27.5156 29.2344 25.1719 29.75C24.8438 29.7969 24.2812 30.125 24.2812 30.6406V32.4219C24.2812 32.8906 24.8906 33.2187 25.1719 33.3125C27.5156 33.8281 32.4844 33.8281 34.8281 33.3125C35.1562 33.2656 35.7188 32.9375 35.7188 32.4219V30.6406C35.7656 30.125 35.1562 29.7969 34.8281 29.75ZM34.7344 32.0937C34.7344 32.4219 34.2656 32.6562 33.9844 32.6562C32.0156 32.9844 27.9375 32.9844 25.9688 32.6562C25.6875 32.6094 25.2188 32.375 25.2188 32.0937V30.9219C25.2188 30.5937 25.6875 30.3594 25.9688 30.3594C27.9375 30.0313 32.0156 30.0313 33.9844 30.3594C34.2656 30.4063 34.7344 30.6406 34.7344 30.9219V32.0937Z" fill="#FDF516"/>
<path d="M19.3125 31.0156H40.6875V32H19.3125V31.0156Z" fill="#FDF516"/>
<path d="M31.5469 31.0156C31.5469 31.8594 30.8437 32.5625 30 32.5625C29.1562 32.5625 28.4531 31.8594 28.4531 31.0156C28.4531 30.1719 29.1562 29.4688 30 29.4688C30.8437 29.4688 31.5469 30.1719 31.5469 31.0156Z" fill="#3E4347"/>
<path d="M30 31.7188C30.3883 31.7188 30.7031 31.404 30.7031 31.0156C30.7031 30.6273 30.3883 30.3125 30 30.3125C29.6117 30.3125 29.2969 30.6273 29.2969 31.0156C29.2969 31.404 29.6117 31.7188 30 31.7188Z" fill="white"/>
<path d="M25.7812 33.875H34.2188V36.9219H25.7812V33.875Z" fill="#94989B"/>
<path d="M28.0312 35.9844H29.0156V38.1875H28.0312V35.9844ZM30.9844 35.9844H31.9688V38.1875H30.9844V35.9844Z" fill="#3E4347"/>
<path d="M18.8438 33.875H41.2031V35.1875H18.8438V33.875Z" fill="#94989B"/>
<path d="M27.2344 38.8438H32.7187V40.8594H27.2344V38.8438Z" fill="#F14E3A"/>
<path d="M41.1563 29.4219C41.1094 29.7031 40.8281 29.8906 40.5 29.8438L36.1406 29.0938C35.8594 29.0469 35.625 28.7656 35.6719 28.4844L35.8594 27.5C35.9063 27.2188 36.1875 27.0313 36.5156 27.0781L40.875 27.8281C41.1563 27.875 41.3906 28.1563 41.3438 28.4375L41.1563 29.4219ZM24.2344 28.4844C24.2813 28.7656 24.0938 29.0469 23.7656 29.0938L19.4063 29.8438C19.125 29.8906 18.7969 29.7031 18.75 29.4219L18.5625 28.4375C18.5156 28.1563 18.7031 27.875 19.0313 27.8281L23.3906 27.0781C23.6719 27.0313 24 27.2188 24.0469 27.5L24.2344 28.4844Z" fill="#3E4347"/>
</g>
<defs>
<filter id="filter0_i_214_150" x="0" y="0" width="60" height="64" filterUnits="userSpaceOnUse" color-interpolation-filters="sRGB">
<feFlood flood-opacity="0" result="BackgroundImageFix"/>
<feBlend mode="normal" in="SourceGraphic" in2="BackgroundImageFix" result="shape"/>
<feColorMatrix in="SourceAlpha" type="matrix" values="0 0 0 0 0 0 0 0 0 0 0 0 0 0 0 0 0 0 127 0" result="hardAlpha"/>
<feOffset dy="4"/>
<feGaussianBlur stdDeviation="2"/>
<feComposite in2="hardAlpha" operator="arithmetic" k2="-1" k3="1"/>
<feColorMatrix type="matrix" values="0 0 0 0 0 0 0 0 0 0 0 0 0 0 0 0 0 0 0.25 0"/>
<feBlend mode="normal" in2="shape" result="effect1_innerShadow_214_150"/>
</filter>
<clipPath id="clip0_214_150">
<rect width="30" height="30" fill="white" transform="translate(15 14)"/>
</clipPath>
</defs>
</svg>
